<?xml version="1.0" encoding="utf-8"?>
<!-- Uploaded to: SVG Repo, www.svgrepo.com, Generator: SVG Repo Mixer Tools -->
<svg width="800px" height="800px" viewBox="0 0 1024 1024" class="icon"  version="1.1" xmlns="http://www.w3.org/2000/svg"><path d="M792.41315 135.404827c38.426774 24.775998-1.118916 90.376448-88.298461 146.578002-66.55952 42.902438-141.622803 67.838282-190.50345 66.271799-0.959071 0.031969-1.886173 0.095907-2.845244 0.095907-0.927102 0-1.854204-0.063938-2.813274-0.095907-48.880647 1.566482-123.943929-23.369361-190.50345-66.271799-87.179545-56.201555-126.725235-121.802004-88.298461-146.578002 32.512504-20.939715 110.357092-5.94624 186.347476 33.183853 10.901439-62.115825 49.42412-107.991383 95.267709-107.991384 45.875558 0 84.398239 45.875558 95.299679 107.991384 75.990384-39.130093 153.834972-54.123568 186.347476-33.183853z" fill="#5FCEFF" /><path d="M510.797964 350.236708c204.98542 0 371.192407 176.3092 371.192408 393.794512s-166.206987 216.558209-371.192408 216.558209c-205.017389 0-371.192407 0.927102-371.192407-216.558209s166.175018-393.794512 371.192407-393.794512z" fill="#FFB578" /><path d="M510.769192 370.728856c-0.952677 0-1.905354-0.035166-2.870819-0.079922l-0.079922-0.003197c-1.409834 0.038363-2.83885 0.057544-4.287047 0.057544-55.354375 0-131.300003-26.78685-198.201592-69.909875-70.913702-45.715713-113.250289-97.575873-113.250289-138.726408 0-18.948044 8.858618-35.098798 24.945434-45.469552 13.436583-8.654016 31.43195-13.03697 53.493778-13.03697 36.435103 0 82.678305 11.841329 129.877381 32.944085 18.98321-59.075571 61.754575-98.285586 110.369879-98.285586 48.631288 0 91.412244 39.213212 110.398652 98.288783 47.202273-21.105954 93.442278-32.947282 129.880578-32.947282 22.061828 0 40.057195 4.386151 53.48099 13.033773 16.096407 10.377147 24.958222 26.524704 24.958222 45.475945-0.003197 41.153732-42.336586 93.010696-113.247092 138.723212-66.901589 43.123025-142.847217 69.913072-198.198395 69.913072h-0.006394c-1.445 0-2.874016-0.019181-4.287047-0.057544l-0.067135 0.003197c-0.965465 0.04156-1.927733 0.076726-2.909182 0.076725z m-2.816471-44.852549c0.255752 0 0.508308 0.003197 0.76406 0.012788l2.062002 0.083119c0.290918 0 0.578639-0.019181 0.866361-0.035166l1.202035-0.05115c0.492323-0.015985 0.987843-0.019181 1.480166 0 1.214823 0.038363 2.455222 0.060741 3.711605 0.060741 46.508545 0 114.787999-24.638531 173.949886-62.774387 68.039687-43.861509 92.742156-84.497343 92.742156-101.105254 0-3.730786-1.122113-5.709669-4.443695-7.851594-3.414292-2.199469-11.7678-5.898286-29.238875-5.898286-35.520789 0-85.891193 15.015853-134.736674 40.165889a22.381518 22.381518 0 0 1-32.285523-16.026075c-9.101583-51.85057-39.90694-89.481315-73.257033-89.481315-33.330911 0-64.126677 37.630745-73.22826 89.481315a22.381518 22.381518 0 0 1-32.285523 16.026075c-48.845481-25.150036-99.212688-40.165889-134.736674-40.165889-17.477469 0-25.827779 3.698817-29.248466 5.901483-3.311992 2.135531-4.434104 4.117611-4.434104 7.848397 0 16.611108 24.699273 57.243745 92.738959 101.108451 59.15869 38.132659 127.438144 62.77119 173.953083 62.77119 1.256383 0 2.490387-0.019181 3.708408-0.060741 0.239768-0.006394 0.476339-0.009591 0.716106-0.009591z" fill="#4F46A3" /><path d="M515.989735 982.96775h-10.383541c-101.146814 0-196.683063 0-267.491268-29.08862-81.345197-33.417227-120.88769-102.061128-120.88769-209.851107 0-229.476894 176.555362-416.172833 393.570728-416.172833s393.570728 186.692741 393.570729 416.172833c0 107.783585-39.548887 176.424289-120.906872 209.844713-70.820992 29.095014-166.341257 29.095014-267.472086 29.095014z m-7.800443-44.756642h7.800443c96.584833 0 187.814854 0 250.467759-25.735069 64.423989-26.463963 93.157753-78.416834 93.157754-168.444819 0-204.8-156.475614-371.416191-348.814087-371.416191S161.987075 539.23122 161.987075 744.03122c0 90.037576 28.724173 141.990447 93.138572 168.448016 62.63692 25.731872 153.879729 25.731872 250.483744 25.731872h2.579901z" fill="#4F46A3" /><path d="M617.577722 625.298242h-213.588287a22.378321 22.378321 0 1 1 0-44.756642h213.588287a22.378321 22.378321 0 1 1 0 44.756642zM617.577722 725.262202h-213.588287a22.378321 22.378321 0 1 1 0-44.756642h213.588287a22.378321 22.378321 0 1 1 0 44.756642z" fill="#4F46A3" /><path d="M510.797964 835.590522a22.378321 22.378321 0 0 1-22.378321-22.378321v-208.665056a22.378321 22.378321 0 1 1 44.756642 0v208.665056a22.378321 22.378321 0 0 1-22.378321 22.378321z" fill="#4F46A3" /><path d="M511.55563 616.5675a22.288808 22.288808 0 0 1-14.270975-5.15021l-0.767256-0.636184-99.353352-82.000562a22.378321 22.378321 0 0 1 28.4908-34.513765l100.200531 82.700684a22.378321 22.378321 0 0 1-14.299748 39.600037z" fill="#4F46A3" /><path d="M510.014723 616.5675a22.378321 22.378321 0 0 1-13.960875-39.881365l0.648971-0.514701 99.209491-81.911049a22.378321 22.378321 0 1 1 28.497193 34.513765l-99.359745 82.032531-0.303706 0.242965-0.799225 0.636183a22.272823 22.272823 0 0 1-13.932104 4.881671z" fill="#4F46A3" /></svg>