<?xml version="1.0" encoding="UTF-8" standalone="no"?>
<!DOCTYPE svg PUBLIC "-//W3C//DTD SVG 1.1//EN" "http://www.w3.org/Graphics/SVG/1.1/DTD/svg11.dtd">
<!-- Created with Vectornator (http://vectornator.io/) -->
<svg height="100%" stroke-miterlimit="10" style="fill-rule:nonzero;clip-rule:evenodd;stroke-linecap:round;stroke-linejoin:round;" version="1.1" viewBox="0 0 1024 1024" width="100%" xml:space="preserve" xmlns="http://www.w3.org/2000/svg" xmlns:vectornator="http://vectornator.io" xmlns:xlink="http://www.w3.org/1999/xlink">
<defs/>
<g id="Untitled" vectornator:layerName="Untitled">
<path d="M802.998 530.216L802.998 534.052L223.016 534.052L223.016 418.324L223.879 418.324C281.775 418.324 281.775 482.294 339.703 482.294C397.599 482.294 397.599 418.324 455.527 418.324C513.423 418.324 513.423 482.294 571.319 482.294C629.246 482.294 629.246 418.324 687.174 418.324C745.07 418.324 745.07 482.294 802.998 482.294C802.998 482.294 802.998 530.216 802.998 530.216Z" fill="#ffb578" fill-rule="nonzero" opacity="1" stroke="none" vectornator:layerName="path"/>
<path d="M802.998 359.885L802.998 482.294C745.07 482.294 745.07 418.324 687.174 418.324C629.246 418.324 629.246 482.294 571.319 482.294C513.423 482.294 513.423 418.324 455.527 418.324C397.599 418.324 397.599 482.294 339.703 482.294C281.775 482.294 281.775 418.324 223.879 418.324L223.016 418.324L223.016 359.885C223.016 344.508 247.344 332.04 277.363 332.04L748.651 332.04C778.67 332.04 802.998 344.508 802.998 359.885Z" fill="#5fceff" fill-rule="nonzero" opacity="1" stroke="none" vectornator:layerName="path"/>
<g opacity="1" vectornator:layerName="Candle M">
<path d="M538.435 327.381L538.435 332.04L479.804 332.04L479.804 177.441C479.804 167.368 483.097 158.251 488.404 151.641C493.89 144.781 501.345 140.926 509.12 140.931C525.296 140.931 538.435 157.295 538.435 177.441L538.435 327.381Z" fill="#ff4893" fill-rule="nonzero" opacity="1" stroke="#4f46a3" stroke-linecap="round" stroke-linejoin="round" stroke-width="15" vectornator:layerName="path 6"/>
<path d="M509.197 82.8613C529.872 82.8613 546.665 99.6135 546.665 120.288C546.668 135.439 537.545 149.101 523.55 154.905C509.555 160.708 493.441 157.512 482.721 146.806C475.672 139.783 471.716 130.238 471.73 120.288C471.73 109.951 475.938 100.594 482.721 93.8115C489.737 86.7822 499.266 82.841 509.197 82.8613Z" fill="#ffb300" fill-rule="nonzero" opacity="1" stroke="#4f46a3" stroke-linecap="round" stroke-linejoin="round" stroke-width="15" vectornator:layerName="path 7"/>
</g>
<g opacity="1" vectornator:layerName="Candle L">
<path d="M410.31 328.729L410.31 332.04L358.41 332.04L358.41 222.157C358.41 214.998 361.325 208.517 366.023 203.82C370.879 198.943 377.478 196.204 384.36 196.207C398.679 196.207 410.31 207.838 410.31 222.157L410.31 328.729Z" fill="#ff4893" fill-rule="nonzero" opacity="1" stroke="#4f46a3" stroke-linecap="round" stroke-linejoin="round" stroke-width="15" vectornator:layerName="path 6"/>
<path d="M384.429 140.931C402.73 140.931 417.595 155.76 417.595 174.061C417.597 187.472 409.522 199.565 397.133 204.703C384.745 209.84 370.482 207.011 360.992 197.534C354.753 191.317 351.251 182.869 351.263 174.061C351.263 164.911 354.988 156.628 360.992 150.624C367.203 144.402 375.638 140.913 384.429 140.931Z" fill="#ffb300" fill-rule="nonzero" opacity="1" stroke="#4f46a3" stroke-linecap="round" stroke-linejoin="round" stroke-width="15" vectornator:layerName="path 7"/>
</g>
<g opacity="1" vectornator:layerName="Candle R">
<path d="M660.004 328.729L660.004 332.04L608.104 332.04L608.104 222.157C608.104 214.998 611.019 208.517 615.717 203.82C620.573 198.943 627.172 196.204 634.054 196.207C648.373 196.207 660.004 207.838 660.004 222.157L660.004 328.729Z" fill="#ff4893" fill-rule="nonzero" opacity="1" stroke="#4f46a3" stroke-linecap="round" stroke-linejoin="round" stroke-width="15" vectornator:layerName="path 6"/>
<path d="M634.123 140.931C652.424 140.931 667.288 155.76 667.288 174.061C667.291 187.472 659.216 199.565 646.827 204.703C634.439 209.84 620.176 207.011 610.686 197.534C604.447 191.317 600.945 182.869 600.957 174.061C600.957 164.911 604.682 156.628 610.686 150.624C616.896 144.402 625.332 140.913 634.123 140.931Z" fill="#ffb300" fill-rule="nonzero" opacity="1" stroke="#4f46a3" stroke-linecap="round" stroke-linejoin="round" stroke-width="15" vectornator:layerName="path 7"/>
</g>
<path d="M228.162 419.512C275.121 419.512 288.514 482.294 341.062 482.294C388.883 482.294 408.731 418.324 454.86 418.324C503.185 418.324 522.86 482.294 572.188 482.294C620.605 482.294 639.494 418.324 691.063 418.324C733.156 418.324 758.734 476.188 780.108 476.188" fill="none" opacity="1" stroke="#4f46a3" stroke-linecap="round" stroke-linejoin="round" stroke-width="25" vectornator:layerName="Curve 1"/>
<path d="M223.016 534.052L223.016 360.34C223.016 344.71 235.687 332.04 251.316 332.04L774.698 332.04C790.328 332.04 802.998 344.71 802.998 360.34L802.998 534.052" fill="none" opacity="1" stroke="#4f46a3" stroke-linecap="round" stroke-linejoin="round" stroke-width="35" vectornator:layerName="Curve 2"/>
<path d="M121.732 578.148C121.732 553.794 141.474 534.052 165.827 534.052L864.726 534.052C889.08 534.052 908.822 553.794 908.822 578.148L908.822 773.045C908.822 797.398 889.08 817.141 864.726 817.141L165.827 817.141C141.474 817.141 121.732 797.398 121.732 773.045L121.732 578.148Z" fill="#fff07c" fill-rule="nonzero" opacity="1" stroke="#4f46a3" stroke-linecap="butt" stroke-linejoin="round" stroke-width="35" vectornator:layerName="Rectangle 1"/>
<path d="M133.845 595.304C137.208 598.056 296.421 678.889 314.062 678.889L515.277 606.228L711.694 678.889C720.971 678.889 754.238 677.902 802.998 659.17C846.959 642.281 896.663 606.228 896.663 606.228C896.663 606.228 896.663 585.35 896.663 571.846C896.663 557.655 883.777 546.473 869.444 546.473L182.783 545.704C159.039 545.568 139.303 544.746 133.596 576.943L133.845 595.304Z" fill="#ff4893" fill-rule="nonzero" opacity="1" stroke="none" vectornator:layerName="path 2"/>
<path d="M56.8401 817.141L967.16 817.141L910.829 907.858L115.199 907.858L56.8401 817.141" fill="#ddf1ff" fill-rule="nonzero" opacity="1" stroke="#4f46a3" stroke-linecap="round" stroke-linejoin="round" stroke-width="35" vectornator:layerName="Curve 3"/>
<path d="M121.732 606.23C173.526 606.23 242.544 678.889 314.622 678.889C384.227 678.889 425.868 605.77 515.277 606.23C594.5 606.638 652.768 678.889 729.312 678.889C802.998 678.889 859.137 628.073 896.663 612.232" fill="none" opacity="1" stroke="#4f46a3" stroke-linecap="round" stroke-linejoin="round" stroke-width="25" vectornator:layerName="Curve 4"/>
</g>
</svg>
