<?xml version="1.0" encoding="utf-8"?>
<!-- Uploaded to: SVG Repo, www.svgrepo.com, Generator: SVG Repo Mixer Tools -->
<svg width="800px" height="800px" viewBox="0 0 1024 1024" class="icon"  version="1.1" xmlns="http://www.w3.org/2000/svg"><path d="M739.363741 722.84854m-165.088071 0a165.088071 165.088071 0 1 0 330.176142 0 165.088071 165.088071 0 1 0-330.176142 0Z" fill="#5FCEFF" /><path d="M759.18454 230.8132c15.664825 11.22113 19.277325 33.024008 8.056196 48.688832l-18.637945 25.990822c-11.189161 15.664825-32.992039 19.245356-48.656864 8.024226l-191.398582-137.115169c-15.664825-11.22113-19.277325-32.992039-8.056196-48.656864l18.637945-25.990821c11.22113-15.664825 32.992039-19.277325 48.656863-8.056196l191.398583 137.11517z" fill="#FFB578" /><path d="M306.630951 554.339783c105.817489 0 191.590397 85.804877 191.590397 191.622366 0 105.849458-85.772907 191.622366-191.590397 191.622366-105.849458 0-191.622366-85.772907-191.622366-191.622366 0-105.817489 85.772907-191.622366 191.622366-191.622366z" fill="#FF4893" /><path d="M306.630951 959.962836c-118.000887 0-214.000687-95.9998-214.000687-214.000687 0-117.99769 95.9998-213.99749 214.000687-213.99749 117.981705 0 213.971915 95.9998 213.971915 213.99749 0 118.000887-95.990209 214.000687-213.971915 214.000687z m0-383.244732c-93.320795 0-169.244045 75.923249-169.244045 169.240848 0 93.320795 75.923249 169.244045 169.244045 169.244045 93.304811 0 169.212076-75.923249 169.212076-169.244045 0-93.317599-75.907265-169.240848-169.212076-169.240848zM739.363741 910.314932c-103.371859 0-187.469589-84.09773-187.469588-187.466392s84.09773-187.466392 187.469588-187.466391c103.368662 0 187.466392 84.09773 187.466392 187.466391s-84.09773 187.466392-187.466392 187.466392z m0-330.172945c-78.691767 0-142.712947 64.017983-142.712946 142.70975s64.017983 142.70975 142.712946 142.70975c78.68857 0 142.70975-64.017983 142.70975-142.70975s-64.017983-142.70975-142.70975-142.70975z" fill="#4F46A3" /><path d="M306.630951 574.608148a22.378321 22.378321 0 0 1-22.378321-22.378321c0-179.167232 145.750005-324.933221 324.901252-324.933221a22.378321 22.378321 0 1 1 0 44.756642c-154.471156 0-280.14461 125.686241-280.14461 280.176579a22.378321 22.378321 0 0 1-22.378321 22.378321z" fill="#4F46A3" /><path d="M778.190128 580.276257a22.483819 22.483819 0 0 1-5.77041-0.757666c-143.138135-38.084705-228.636109-185.532266-190.580175-328.683188a22.378321 22.378321 0 0 1 43.254098 11.496063c-31.713278 119.30842 39.539296 242.194174 158.838125 273.936225a22.378321 22.378321 0 0 1-5.741638 44.008566z" fill="#4F46A3" /><path d="M720.255852 342.433068c-12.017158 0-23.545191-3.708407-33.340501-10.722413l-191.398583-137.115169c-25.667934-18.385389-31.594992-54.219475-13.215997-79.877819l18.644338-26.000412a57.422772 57.422772 0 0 1 46.57568-23.919228 56.872904 56.872904 0 0 1 33.302139 10.709625l191.398582 137.118367c25.674328 18.39498 31.604583 54.241853 13.215997 79.912984l-18.644338 26.000412c-10.680853 14.945522-28.08799 23.893653-46.537317 23.893653z m-172.73826-232.881596a12.403984 12.403984 0 0 0-10.194923 5.236527l-18.641142 25.997215a12.506285 12.506285 0 0 0 2.899591 17.423122l191.398583 137.118366a12.451937 12.451937 0 0 0 7.276151 2.349724 12.308077 12.308077 0 0 0 10.13738-5.188574l18.663519-26.025987a12.525466 12.525466 0 0 0-2.902788-17.45509L554.755381 111.891605a12.359227 12.359227 0 0 0-7.237789-2.340133zM189.400518 757.886597a22.378321 22.378321 0 0 1-22.378321-22.378321c0-71.198227 57.924685-129.122912 129.122912-129.122912a22.378321 22.378321 0 1 1 0 44.756642c-46.521332 0-84.36627 37.844938-84.36627 84.36627a22.378321 22.378321 0 0 1-22.378321 22.378321z" fill="#4F46A3" /></svg>