<?xml version="1.0" encoding="utf-8"?>
<!-- Uploaded to: SVG Repo, www.svgrepo.com, Generator: SVG Repo Mixer Tools -->
<svg width="800px" height="800px" viewBox="0 0 1024 1024" class="icon"  version="1.1" xmlns="http://www.w3.org/2000/svg"><path d="M629.0432 547.7376a8.51968 8.51968 0 1 1 0 17.0496 8.51968 8.51968 0 0 1 0-17.0496zM637.5424 752.3328c0 9.4208-7.6288 17.1008-17.0496 17.1008s-17.0496-7.68-17.0496-17.1008a17.05472 17.05472 0 0 1 34.0992 0zM488.9088 866.0992a20.86912 20.86912 0 0 1-21.248-20.48 20.87936 20.87936 0 0 1 20.48-20.48c11.52-0.1536 21.0432 9.0112 21.1968 20.48a20.736 20.736 0 0 1-20.4288 20.48z" fill="#FF4893" /><path d="M398.6944 694.016m-25.7024 0a25.7024 25.7024 0 1 0 51.4048 0 25.7024 25.7024 0 1 0-51.4048 0Z" fill="#FF4893" /><path d="M483.4816 585.6768c12.4416 0 22.5792 10.1376 22.5792 22.5792a22.6304 22.6304 0 0 1-22.5792 22.6304c-12.4928 0-22.6304-10.1376-22.6304-22.6304a22.6304 22.6304 0 0 1 22.6304-22.5792z" fill="#FF4893" /><path d="M688.7936 534.2208l-19.3536 418.4576H346.0608l-21.1456-458.0352c0.3072 0.512 0.6656 1.0752 1.024 1.6384 11.3664 17.92 26.9824 42.3936 59.5968 42.3936 32.6144 0 48.1792-24.4736 59.5456-42.3424 10.496-16.5376 14.8992-21.6576 21.8112-21.6576 6.9632 0 11.3664 5.12 21.8112 21.6576 11.3664 17.8688 26.9312 42.3424 59.5456 42.3424 32.6656 0 48.2816-24.5248 59.648-42.3936 10.2912-16.2304 14.8992-21.6064 21.76-21.6064 6.9632 0 11.3152 5.12 21.8112 21.6064 8.3968 13.2608 19.0976 30.1056 37.3248 37.9392z m-28.8768 22.016c0-16.9984-13.824-30.8736-30.8736-30.8736s-30.9248 13.8752-30.9248 30.8736c0 17.0496 13.8752 30.9248 30.9248 30.9248s30.8736-13.8752 30.8736-30.9248z m0 196.096c0-21.7088-17.664-39.424-39.3728-39.424-21.76 0-39.4752 17.7152-39.4752 39.424 0 21.76 17.7152 39.424 39.4752 39.424 21.7088 0 39.3728-17.664 39.3728-39.424z m-128.1536 93.2864c0-23.808-19.4048-43.2128-43.264-43.2128-23.808 0-43.2128 19.4048-43.2128 43.2128 0 23.8592 19.4048 43.264 43.2128 43.264 23.8592 0 43.264-19.4048 43.264-43.264z m0-237.3632c0-26.624-21.6576-48.2816-48.2816-48.2816S435.2 581.632 435.2 608.256c0 26.624 21.6576 48.2816 48.2816 48.2816s48.2816-21.6576 48.2816-48.2816z m-84.3264 85.76c0-26.88-21.8624-48.7424-48.7424-48.7424s-48.7424 21.8624-48.7424 48.7424 21.8624 48.7424 48.7424 48.7424 48.7424-21.8624 48.7424-48.7424z" fill="#FF4893" /><path d="M629.0432 525.3632c17.0496 0 30.8736 13.8752 30.8736 30.8736 0 17.0496-13.824 30.9248-30.8736 30.9248s-30.9248-13.8752-30.9248-30.9248c0-16.9984 13.8752-30.8736 30.9248-30.8736z m13.8752 30.8736a13.91104 13.91104 0 0 0-13.8752-13.824 13.85472 13.85472 0 1 0 0 27.6992c7.6288 0 13.824-6.1952 13.8752-13.8752zM620.544 712.9088c21.7088 0 39.3728 17.7152 39.3728 39.424 0 21.76-17.664 39.424-39.3728 39.424-21.76 0-39.4752-17.664-39.4752-39.424 0-21.7088 17.7152-39.424 39.4752-39.424z m-0.0512 59.2384c10.9568 0 19.8144-8.8576 19.8144-19.8144 0-10.9056-8.8576-19.8144-19.8144-19.8144a19.8656 19.8656 0 0 0-19.8144 19.8144c0 10.9568 8.9088 19.8144 19.8144 19.8144z" fill="#4F46A3" /><path d="M629.0432 564.7872a8.51968 8.51968 0 0 0 0-17.0496 8.51968 8.51968 0 1 0 0 17.0496z m0-22.3744c7.6288 0 13.824 6.1952 13.8752 13.824a13.92128 13.92128 0 0 1-13.8752 13.8752 13.85472 13.85472 0 0 1 0-27.6992zM603.4432 752.3328c0 9.4208 7.6288 17.1008 17.0496 17.1008s17.0496-7.68 17.0496-17.1008-7.6288-17.0496-16.9984-17.0496c-9.472 0-17.1008 7.6288-17.1008 17.0496z m-2.7648 0a19.8656 19.8656 0 0 1 19.8144-19.8144c10.9568 0 19.8144 8.9088 19.8144 19.8144 0 10.9568-8.8576 19.8144-19.8144 19.8144-10.9056 0-19.8144-8.8576-19.8144-19.8144z" fill="#FF4893" /><path d="M585.6256 35.584c-0.3584 0.4608-0.7168 0.9216-1.024 1.4336 0.256-0.512 0.5632-0.9728 1.024-1.4336zM488.4992 802.4064c23.8592 0 43.264 19.4048 43.264 43.2128 0 23.8592-19.4048 43.264-43.264 43.264-23.808 0-43.2128-19.4048-43.2128-43.264 0-23.808 19.4048-43.2128 43.2128-43.2128z m21.9136 43.2128c0-12.032-9.8304-21.8624-21.9136-21.8624a21.9136 21.9136 0 0 0-21.8624 21.8624c0 12.0832 9.8304 21.9136 21.8624 21.9136 12.0832 0 21.9136-9.8304 21.9136-21.9136zM483.4816 559.9744c26.624 0 48.2816 21.6576 48.2816 48.2816 0 26.624-21.6576 48.2816-48.2816 48.2816S435.2 634.88 435.2 608.256c0-26.624 21.6576-48.2816 48.2816-48.2816z m25.856 48.2816c0-14.2848-11.5712-25.856-25.856-25.856s-25.9072 11.5712-25.9072 25.856 11.6224 25.9072 25.9072 25.9072 25.856-11.6224 25.856-25.9072z" fill="#4F46A3" /><path d="M488.1408 825.1392a20.87936 20.87936 0 0 0-20.48 20.48c0.2048 11.52 9.728 20.6848 21.248 20.48a20.736 20.736 0 0 0 20.4288-20.48c-0.1536-11.4688-9.6768-20.6336-21.1968-20.48z m-21.504 20.48a21.9136 21.9136 0 0 1 21.8624-21.8624c12.0832 0 21.9136 9.8304 21.9136 21.8624 0 12.0832-9.8304 21.9136-21.9136 21.9136-12.032 0-21.8624-9.8304-21.8624-21.9136z" fill="#FF4893" /><path d="M457.5744 608.256c0-14.2848 11.6224-25.856 25.9072-25.856s25.856 11.5712 25.856 25.856-11.5712 25.9072-25.856 25.9072-25.9072-11.6224-25.9072-25.9072z m25.9072-22.5792a22.6304 22.6304 0 0 0-22.6304 22.5792c0 12.4928 10.1376 22.6304 22.6304 22.6304a22.6304 22.6304 0 0 0 22.5792-22.6304c0-12.4416-10.1376-22.5792-22.5792-22.5792zM398.6944 645.2736c26.88 0 48.7424 21.8624 48.7424 48.7424s-21.8624 48.7424-48.7424 48.7424-48.7424-21.8624-48.7424-48.7424 21.8624-48.7424 48.7424-48.7424z m26.368 48.7424c0-14.592-11.776-26.368-26.368-26.368a26.368 26.368 0 1 0 0 52.736 26.368 26.368 0 0 0 26.368-26.368z" fill="#4F46A3" /><path d="M372.992 694.016c0 14.1824 11.52 25.7024 25.7024 25.7024 14.1824 0 25.7024-11.52 25.7024-25.7024s-11.52-25.7024-25.7024-25.7024c-14.1824 0-25.7024 11.52-25.7024 25.7024z m52.0704 0a26.368 26.368 0 1 1-52.736 0 26.368 26.368 0 0 1 26.368-26.368c14.592 0 26.368 11.776 26.368 26.368z" fill="#4F46A3" /><path d="M776.3456 250.7264h-217.856l60.9792-179.3536h104.192c12.3392 0 22.3744-9.984 22.3744-22.3744 0-12.3392-10.0352-22.3744-22.3744-22.3744h-120.2176c-7.3216 0-13.824 3.5328-17.8176 8.96-0.3584 0.4608-0.7168 0.9216-1.024 1.4336-0.8192 1.1776-1.4336 2.4576-1.9456 3.7888-0.1536 0.3072-0.3072 0.6656-0.4096 0.9728L511.2832 250.5216c0 0.0512-0.0512 0.1536-0.0512 0.2048H242.3808c-0.6144 0-1.28 0.0512-1.8944 0.1024-12.3392 1.024-21.4528 11.8784-20.3776 24.2176l7.8336 90.9824a22.30784 22.30784 0 0 0 22.272 20.4288h24.8832l3.072 65.9968 24.1664 523.6224a22.40512 22.40512 0 0 0 22.3744 21.3504h366.08c11.9296 0 21.8112-9.4208 22.3744-21.3504l21.248-459.7248 5.9904-129.8944h27.8016c11.5712 0 21.248-8.8064 22.272-20.3776l8.1408-90.9824c0.0512-0.6656 0.1024-1.3312 0.1024-1.9968 0-12.3392-10.0352-22.3744-22.3744-22.3744z m-106.9056 701.952H346.0608l-21.1456-458.0352c0.3072 0.512 0.6656 1.0752 1.024 1.6384 11.3664 17.92 26.9824 42.3936 59.5968 42.3936s48.1792-24.4736 59.5456-42.3424c10.496-16.5376 14.8992-21.6576 21.8112-21.6576 6.9632 0 11.3664 5.12 21.8112 21.6576 11.3664 17.8688 26.9312 42.3424 59.5456 42.3424 32.6656 0 48.2816-24.5248 59.648-42.3936 10.2912-16.2304 14.8992-21.6064 21.76-21.6064 6.9632 0 11.3152 5.12 21.8112 21.6064 8.3968 13.2608 19.0976 30.1056 37.3248 37.9392l-19.3536 418.4576z m78.2848-610.9696h-28.672c-11.9808 0-21.8112 9.4208-22.3744 21.3504l-5.2224 112.6912c-0.6656-1.0752-1.4336-2.2528-2.2016-3.4816-11.3664-17.8688-26.9312-42.3424-59.5968-42.3424-32.6144 0-48.1792 24.4736-59.5456 42.3424-10.496 16.4864-14.848 21.6576-21.8624 21.6576-6.8608 0-11.4688-5.4272-21.76-21.6064-11.3664-17.92-26.9312-42.3936-59.5968-42.3936-32.6144 0-48.1792 24.4736-59.5456 42.3936-10.3424 16.1792-14.9504 21.6064-21.8112 21.6064-6.9632 0-11.3152-5.12-21.8112-21.6576-5.6832-8.9088-12.3904-19.5072-21.8112-27.8528-5.5808-4.9664-12.0832-9.1648-19.8656-11.7248l-3.2256-69.632a22.38976 22.38976 0 0 0-22.3232-21.3504h-25.7536l-3.9936-46.2336h485.12l-4.1472 46.2336z" fill="#4F46A3" /></svg>