<?xml version="1.0" encoding="utf-8"?>
<!-- Uploaded to: SVG Repo, www.svgrepo.com, Generator: SVG Repo Mixer Tools -->
<svg width="800px" height="800px" viewBox="0 0 1024 1024" class="icon"  version="1.1" xmlns="http://www.w3.org/2000/svg"><path d="M940.992414 508.739159c1.150885 97.505542-30.722238 194.499579-93.349568 273.143392h-0.031969l-158.246699-30.914052-63.138834-69.916268 70.971247-218.284537 123.016827-18.414161 120.778996 64.385626z" fill="#FFB578" /><path d="M940.992414 508.739159l-120.778996-64.385626 67.166932-138.4259c35.229871 63.522463 52.844807 133.278886 53.612064 202.811526z" fill="#5FCEFF" /><path d="M887.38035 305.927633l-67.166932 138.4259-123.016827 18.414161-187.945928-134.845369v-93.093815l0.927102-0.735288 150.350348-122.345478 0.35166-0.959071c72.857419 27.045799 139.289064 74.136181 190.311635 140.152228 13.650776 17.646905 25.7031 36.029097 36.188942 54.986732z" fill="#FFB578" /><path d="M847.610877 781.882551h0.031969c-21.09956 26.534295-45.715713 50.958634-73.720583 72.601667-32.832194 25.38341-68.189941 45.268146-104.954326 59.782087l20.396241-163.297806 158.246699 30.914052zM697.196591 462.767694l-70.971247 218.284537h-229.409759l-70.971247-218.284537 183.406325-134.845369z" fill="#5FCEFF" /><path d="M626.225344 681.052231l63.138834 69.916268-20.396241 163.297806c-98.272798 38.938279-206.615841 39.577659-303.86563 4.667478l-21.003653-167.965284 52.716931-69.916268h229.409759z" fill="#FFB578" /><path d="M660.879773 110.788673l-0.35166 0.959071-150.350348 122.345478-0.927102 0.735288-151.245481-123.080766c98.336736-37.371796 206.264182-36.796354 302.874591-0.959071z" fill="#5FCEFF" /><path d="M509.250663 234.82851v93.093815l-183.406325 134.845369-112.594923-18.414161-68.030096-140.248135-8.088165-3.548562c27.301552-47.7937 64.289719-91.111736 110.548906-126.885081 34.430645-26.630202 71.642596-47.218257 110.325122-61.924011l151.245481 123.080766z" fill="#FFB578" /><path d="M325.844338 462.767694l70.971247 218.284537-52.716931 69.916268-168.41285 32.896132c-1.790266-2.205863-3.548562-4.443695-5.306859-6.713496-60.389498-78.10034-89.673129-170.426899-89.832974-262.050139h0.031969l132.671475-70.747463 112.594923 18.414161z" fill="#FFB578" /><path d="M344.098654 750.968499l21.003653 167.965284c-72.090163-25.862945-138.10621-71.258968-189.416503-135.069152l168.41285-32.896132zM80.545971 515.100996c-0.127876-74.615716 19.085511-148.815835 56.585183-214.54416l8.088165 3.548562 68.030096 140.248135-132.671475 70.747463h-0.031969z" fill="#5FCEFF" /><path d="M511.095276 966.705104a453.24412 453.24412 0 0 1-153.553644-26.710124c-78.173869-28.043233-147.089507-77.186026-199.294933-142.105535-1.838219-2.269801-3.698817-4.632312-5.559415-7.033187-61.661865-79.749942-94.343804-175.087984-94.516437-275.716899-0.13427-79.142531 20.447392-157.178933 59.526334-225.669383 29.577747-51.786632 68.701445-96.696725 116.29374-133.502669 35.456851-27.423034 74.507021-49.341001 116.063564-65.136899 51.319884-19.504305 105.299591-29.392326 160.439774-29.392326 54.20349 0 107.422335 9.545952 158.173169 28.372514 79.148924 29.379539 148.38745 80.366945 200.234823 147.44756a453.541432 453.541432 0 0 1 38.062327 57.841566c36.07705 65.044188 55.587749 138.841497 56.41255 213.396472 1.227611 104.203053-33.653798 206.251394-98.224844 287.328051a453.010746 453.010746 0 0 1-77.544079 76.370816 451.632881 451.632881 0 0 1-110.42103 62.889476c-52.956698 20.978077-108.844956 31.620568-166.091899 31.620567z m-0.604214-860.513577c-49.686266 0-98.314358 8.906572-144.535182 26.473554-37.42934 14.229415-72.617652 33.979882-104.583485 58.707926-42.908832 33.180656-78.173869 73.653448-104.810464 120.283476-35.21069 61.716212-53.759121 132.054472-53.637639 203.40615 0.156648 90.657775 29.603322 176.555362 85.159102 248.399363 1.646405 2.12594 3.302401 4.2327 4.987169 6.313884 47.090381 58.560869 109.174237 102.834779 179.589223 128.093509a408.621748 408.621748 0 0 0 138.43549 24.079073c51.578833 0 101.920465-9.584315 149.631045-28.487602a407.087234 407.087234 0 0 0 99.506803-56.68109 408.190166 408.190166 0 0 0 69.897087-68.826125c58.170847-73.049234 89.593207-165.008148 88.490275-258.949143-0.741681-67.166932-18.315057-133.630545-50.808379-192.220187a409.644757 409.644757 0 0 0-34.318754-52.147882c-46.729131-60.45983-109.107102-106.402523-180.398039-132.866485a408.688883 408.688883 0 0 0-142.604252-25.578421z" fill="#4F46A3" /><path d="M626.225344 703.430552h-229.409759a22.378321 22.378321 0 0 1-21.281783-15.460223l-70.971247-218.28134a22.371927 22.371927 0 0 1 8.024227-24.948631l183.406325-134.845369a22.378321 22.378321 0 0 1 26.300921-0.153451l187.945927 134.845368a22.378321 22.378321 0 0 1 8.235222 25.102083l-70.96805 218.28134a22.371927 22.371927 0 0 1-21.281783 15.460223z m-213.153507-44.756642h196.897255l60.885018-187.26179-161.443601-115.83019-157.287628 115.641572 60.948956 187.450408zM509.237876 257.206831a22.282414 22.282414 0 0 1-14.11113-5.022335L344.242515 129.397846a22.330367 22.330367 0 0 1-8.628441-17.650102c0-12.359227 9.999913-22.378321 22.362336-22.378321 5.143817 0 10.166152 1.774281 14.159084 5.022335l151.245481 123.080765a22.378321 22.378321 0 0 1-14.143099 39.734308zM80.597122 537.482514a22.378321 22.378321 0 0 1-10.54978-42.128788l113.669083-60.613281-58.631201-120.868508a22.381518 22.381518 0 0 1 40.271387-19.536275l68.030096 140.248135A22.378321 22.378321 0 0 1 223.78321 464.097605l-132.671474 70.747464a22.295202 22.295202 0 0 1-10.514614 2.637445zM365.073535 941.315301a22.381518 22.381518 0 0 1-22.176916-19.606606l-18.030533-144.183523-144.893235 28.302183c-12.119459 2.381693-23.880865-5.540233-26.252967-17.67248a22.378321 22.378321 0 0 1 17.67248-26.252967l168.41285-32.896132a22.378321 22.378321 0 0 1 26.492735 19.187811l21.003653 167.965284a22.378321 22.378321 0 0 1-22.228067 25.15643zM940.976429 531.120677a22.323974 22.323974 0 0 1-10.50822-2.634248l-120.778995-64.385627a22.378321 22.378321 0 0 1-9.606694-29.517005l67.023071-138.128588c4.699447-10.09582 16.301008-15.377103 27.164085-11.873298 11.761406 3.794724 18.235135 16.358553 14.443608 28.119959l-0.031969 0.095907a22.960157 22.960157 0 0 1-1.163673 2.899591l-57.761643 119.043077 101.77021 54.251444a22.378321 22.378321 0 0 1-10.54978 42.128788zM668.967937 936.66061a22.365533 22.365533 0 0 1-22.205688-25.169217l20.399438-163.297806a22.384715 22.384715 0 0 1 26.495932-19.187811l158.246699 30.914052a22.375124 22.375124 0 0 1 17.672479 26.252967 22.365533 22.365533 0 0 1-26.252967 17.67248l-134.723886-26.316906-17.387956 139.218732a22.394306 22.394306 0 0 1-22.244051 19.913509z" fill="#4F46A3" /><path d="M509.250663 350.300646a22.378321 22.378321 0 0 1-22.378321-22.378321v-93.093815a22.378321 22.378321 0 1 1 44.756642 0v93.093815a22.378321 22.378321 0 0 1-22.378321 22.378321zM697.167819 485.149212a22.381518 22.381518 0 0 1-3.28322-44.513678l123.016828-18.414161a22.381518 22.381518 0 0 1 6.623983 44.264319l-123.016828 18.414161c-1.122113 0.169436-2.237832 0.249358-3.340763 0.249359zM689.370572 773.34682a22.314383 22.314383 0 0 1-16.614305-7.381649l-63.138834-69.916268a22.378321 22.378321 0 0 1 33.219019-29.996541l63.138834 69.916268a22.378321 22.378321 0 0 1-16.604714 37.37819zM344.08267 773.34682a22.378321 22.378321 0 0 1-17.851506-35.85007l52.71693-69.916269a22.371927 22.371927 0 0 1 31.342437-4.395741 22.378321 22.378321 0 0 1 4.395742 31.33924l-52.716931 69.916269a22.349549 22.349549 0 0 1-17.886672 8.906571zM325.869914 485.149212c-1.198839 0-2.413662-0.095907-3.638076-0.297312l-112.594924-18.414162a22.378321 22.378321 0 0 1 7.225001-44.168411l112.594924 18.414161a22.378321 22.378321 0 0 1-3.586925 44.465724z" fill="#4F46A3" /><path d="M510.19375 256.471543a22.378321 22.378321 0 0 1-14.136705-39.737504l150.350348-122.345478a22.378321 22.378321 0 1 1 28.247835 34.718367l-150.347151 122.345477a22.314383 22.314383 0 0 1-14.114327 5.019138z" fill="#4F46A3" /></svg>