<?xml version="1.0" encoding="utf-8"?>
<!-- Uploaded to: SVG Repo, www.svgrepo.com, Generator: SVG Repo Mixer Tools -->
<svg width="800px" height="800px" viewBox="0 0 1024 1024" class="icon"  version="1.1" xmlns="http://www.w3.org/2000/svg"><path d="M766.31552 151.14752l48.14336-49.26464c159.23712 155.59168 129.73056 444.01664-65.88928 644.27008-195.65056 200.22272-483.30752 236.41088-642.57536 80.8192L766.31552 151.14752z m-16.88064 135.61344a7.15776 7.15776 0 0 0-0.128-10.10176 7.16288 7.16288 0 0 0-10.10176 0.128 7.16288 7.16288 0 0 0 0.128 10.10176c2.81088 2.74944 7.3216 2.68288 10.10176-0.128z m-46.0032 237.75232a7.17824 7.17824 0 0 0-0.128-10.16832 7.20896 7.20896 0 0 0-10.16832 0.09728 7.2192 7.2192 0 0 0 0.128 10.19904 7.17824 7.17824 0 0 0 10.16832-0.128z m-36.92544-132.44928a14.2848 14.2848 0 0 0-0.22528-20.20352 14.31552 14.31552 0 0 0-20.20352 0.22528 14.2848 14.2848 0 0 0 20.4288 19.97824zM452.2496 631.80288a7.15776 7.15776 0 0 0-0.128-10.10176 7.12704 7.12704 0 0 0-10.08128 0.10752l-0.02048 0.02048a7.12192 7.12192 0 0 0 0.128 10.07104c2.81088 2.78016 7.3216 2.7136 10.10176-0.09728z m-17.39264 114.41664a10.74176 10.74176 0 0 0-0.15872-15.1552 10.70592 10.70592 0 0 0-15.14496 0.18432l-0.01024 0.01024a10.7008 10.7008 0 0 0 15.30368 14.96576l0.01024-0.00512z m-118.92224-42.99776a10.70592 10.70592 0 0 0-0.18432-15.14496l-0.01024-0.01024a10.7008 10.7008 0 1 0-14.96064 15.31392 10.74176 10.74176 0 0 0 15.1552-0.15872z" fill="#FF4893" /><path d="M356.41856 946.0224c-104.15104 0.00512-197.05856-35.6352-266.06592-103.04512a22.3744 22.3744 0 0 1 31.27296-32.01024c62.21312 60.77952 145.72544 90.18368 235.44832 90.1888 126.84288 0.00512 266.1376-58.73664 375.48544-170.63936 186.6752-191.09376 216.3968-465.92 66.25792-612.62336a22.3744 22.3744 0 1 1 31.2832-32.01024c81.98656 80.11776 119.90528 195.06688 106.74688 323.67616-12.95872 126.68928-74.1376 251.78624-172.26752 352.24576-98.1504 100.44416-221.79328 164.51072-348.14976 180.40832-19.90144 2.5088-39.94624 3.7888-60.01152 3.80928z" fill="#4F46A3" /><path d="M105.99424 849.35168a22.3744 22.3744 0 0 1-16.00512-38.01088l708.46976-725.0944a22.37952 22.37952 0 0 1 32.00512 31.27808L121.99936 842.60864a22.272 22.272 0 0 1-16.00512 6.74304z" fill="#4F46A3" /><path d="M345.2928 860.8768c-76.82048 0.00512-147.61472-22.25664-204.288-65.05472a22.3744 22.3744 0 0 1 26.96704-35.72224l0.00512 0.00512c135.19872 102.08256 350.73024 62.80704 501.3504-91.38688 150.84032-154.34752 185.00608-370.8672 79.46752-503.64928a22.3744 22.3744 0 1 1 34.65728-28.31872l0.37888 0.47616c57.7536 72.66304 81.00864 170.30144 65.47968 274.93376-15.39584 103.7312-67.94752 205.95712-147.97312 287.8464-79.93344 81.83296-180.82816 136.7296-284.07808 154.57792a423.35232 423.35232 0 0 1-71.96672 6.29248z" fill="#4F46A3" /><path d="M585.01632 544.36352a22.37952 22.37952 0 0 1-15.92832-38.0928c0.01536-0.01536 2.21696-2.24768 4.9152-5.00736l4.95104-5.07904a22.38464 22.38464 0 0 1 32.08192 31.21152l-5.0176 5.1456c-2.79552 2.85696-5.06368 5.16096-5.06368 5.16096a22.31296 22.31296 0 0 1-15.93856 6.66112z m-16.3328 140.40576a22.3744 22.3744 0 0 1-15.81568-38.20544c0.05632-0.05632 1.408-1.408 3.0464-3.10272 1.85344-1.88416 3.21536-3.30752 3.25632-3.34848a22.37952 22.37952 0 0 1 32.32768 30.9504s-1.5616 1.63328-3.53792 3.64032c-1.83296 1.90464-3.46112 3.52768-3.46112 3.52768a22.31296 22.31296 0 0 1-15.81568 6.53824z m-117.58592-128.18944a22.3744 22.3744 0 0 1-15.96416-38.05696l4.08064-4.17792c2.29376-2.3296 4.06528-4.15232 4.096-4.18816a22.3744 22.3744 0 0 1 32.18944 31.09376s-1.93024 1.9968-4.32128 4.42368l-4.1216 4.21888a22.32832 22.32832 0 0 1-15.95904 6.68672z m-27.30496 209.06496a22.3744 22.3744 0 0 1-15.96416-38.05696l4.08064-4.17792c2.29376-2.3296 4.06528-4.15232 4.096-4.18816a22.3744 22.3744 0 0 1 32.18944 31.09376s-1.93024 1.9968-4.32128 4.42368l-4.1216 4.21888a22.30784 22.30784 0 0 1-15.95904 6.68672z m-119.46496-40.96a22.3744 22.3744 0 0 1-15.96416-38.05696l4.08064-4.17792c2.29376-2.3296 4.06528-4.15232 4.096-4.18816a22.3744 22.3744 0 0 1 32.18944 31.09376s-1.93024 1.9968-4.32128 4.42368l-4.1216 4.21888a22.30784 22.30784 0 0 1-15.95904 6.68672z m137.38496-70.82496a22.3744 22.3744 0 0 1-15.96416-38.05696l4.08064-4.17792c2.29376-2.3296 4.06528-4.15232 4.096-4.18816a22.3744 22.3744 0 0 1 32.18944 31.09376s-1.93024 1.9968-4.32128 4.42368l-4.1216 4.21888a22.3488 22.3488 0 0 1-15.95904 6.68672z m254.29504-110.08a22.3744 22.3744 0 0 1-15.96416-38.05696l4.08064-4.17792c2.29376-2.3296 4.06528-4.15232 4.096-4.18816a22.3744 22.3744 0 0 1 32.18944 31.09376s-1.93024 1.9968-4.32128 4.42368l-4.1216 4.21888a22.3488 22.3488 0 0 1-15.95904 6.68672z m-44.37504-136.53504a22.3744 22.3744 0 0 1-15.96416-38.05696l4.08064-4.17792c2.29376-2.3296 4.06528-4.15232 4.096-4.18816a22.3744 22.3744 0 0 1 32.18944 31.09376s-1.93024 1.9968-4.32128 4.42368l-4.1216 4.21888a22.2976 22.2976 0 0 1-15.95904 6.68672z m85.33504-97.28a22.3744 22.3744 0 0 1-15.96416-38.05696l4.08064-4.17792c2.29376-2.3296 4.06528-4.15232 4.096-4.18816a22.3744 22.3744 0 0 1 32.18944 31.09376s-1.93024 1.9968-4.32128 4.42368l-4.1216 4.21888a22.30784 22.30784 0 0 1-15.95904 6.68672z" fill="#4F46A3" /></svg>