<?xml version="1.0" encoding="UTF-8" standalone="no"?>
<!DOCTYPE svg PUBLIC "-//W3C//DTD SVG 1.1//EN" "http://www.w3.org/Graphics/SVG/1.1/DTD/svg11.dtd">
<!-- Created with Vectornator (http://vectornator.io/) -->
<svg height="100%" stroke-miterlimit="10" style="fill-rule:nonzero;clip-rule:evenodd;stroke-linecap:round;stroke-linejoin:round;" version="1.1" viewBox="0 0 1024 1024" width="100%" xml:space="preserve" xmlns="http://www.w3.org/2000/svg" xmlns:vectornator="http://vectornator.io" xmlns:xlink="http://www.w3.org/1999/xlink">
<defs/>
<g id="Untitled" vectornator:layerName="Untitled">
<path d="M948.286 374.753L948.286 494.518C948.286 513.456 933.006 528.737 914.068 528.737L619.031 528.737L619.031 340.535L914.068 340.535C932.875 340.535 948.286 355.946 948.286 374.753ZM884.421 542.45L884.421 949.547C884.421 968.484 869.009 983.765 850.202 983.765L581.286 983.765L581.286 542.45C581.286 542.45 884.421 542.45 884.421 542.45Z" fill="#ffb677" fill-rule="nonzero" opacity="1" stroke="none" vectornator:layerName="path"/>
<path d="M710.977 145.933C760.737 145.933 801.486 186.421 801.486 236.443C801.486 286.203 760.868 326.952 710.977 326.952L524.865 326.952L585.988 234.353C630.394 173.23 658.996 145.933 710.977 145.933ZM605.317 340.535L605.317 528.737L414.764 528.737L414.764 340.535L510.629 340.535L510.759 340.665L510.89 340.535L524.865 340.535L605.317 340.535ZM578.021 85.3324C603.881 130.13 599.832 175.45 564.569 236.573L510.629 316.242L419.074 180.413C407.189 159.908 404.316 134.179 411.108 109.494C417.899 85.0712 433.702 64.1743 454.338 52.2893C468.313 44.1918 483.724 40.143 499.527 40.143C507.364 40.143 515.2 41.1878 523.036 43.2775C546.414 49.5466 566.005 64.4356 578.021 85.3324ZM451.334 542.45L567.703 542.45L567.703 983.765L451.334 983.765L451.334 542.45ZM437.882 233.961L499.266 326.821L313.284 326.821C263.393 326.821 222.775 286.203 222.775 236.312C222.775 186.421 263.263 145.803 313.284 145.803C365.265 145.933 393.737 173.23 437.882 233.961Z" fill="#ff4893" fill-rule="nonzero" opacity="1" stroke="none" vectornator:layerName="path"/>
<path d="M437.62 542.45L437.62 983.765L173.929 983.765C154.991 983.765 139.71 968.484 139.71 949.547L139.71 542.45C139.71 542.45 437.62 542.45 437.62 542.45ZM401.182 340.535L401.182 528.737L110.063 528.737C91.1249 528.737 75.8441 513.456 75.8441 494.518L75.8441 374.753C75.8441 355.816 91.1249 340.535 110.063 340.535L401.182 340.535Z" fill="#ffb677" fill-rule="nonzero" opacity="1" stroke="none" vectornator:layerName="path"/>
<path d="M914.068 340.535L619.031 340.535L619.031 528.737L914.068 528.737C933.006 528.737 948.286 513.456 948.286 494.518L948.286 374.753C948.286 355.946 932.875 340.535 914.068 340.535ZM850.202 983.765C869.009 983.765 884.421 968.484 884.421 949.547L884.421 542.45L581.286 542.45L581.286 983.765L850.202 983.765ZM401.182 528.737L401.182 340.535L110.063 340.535C91.1249 340.535 75.8441 355.816 75.8441 374.753L75.8441 494.518C75.8441 513.456 91.1249 528.737 110.063 528.737L401.182 528.737ZM313.284 326.952L499.397 326.952L438.012 234.092C393.868 173.36 365.396 146.064 313.284 146.064C263.393 146.064 222.775 186.551 222.775 236.573C222.775 286.203 263.263 326.952 313.284 326.952ZM437.62 983.765L437.62 542.45L139.71 542.45L139.71 949.547C139.71 968.484 154.991 983.765 173.929 983.765C173.929 983.765 437.62 983.765 437.62 983.765ZM451.334 983.765L567.703 983.765L567.703 542.45L451.334 542.45L451.334 983.765ZM605.317 340.535L510.89 340.535L510.759 340.665L510.629 340.535L414.764 340.535L414.764 528.737L605.317 528.737C605.317 528.737 605.317 340.535 605.317 340.535ZM585.988 234.222L524.865 326.952L710.977 326.952C760.737 326.952 801.486 286.334 801.486 236.443C801.486 186.551 760.868 145.933 710.977 145.933C658.996 145.933 630.394 173.23 585.988 234.222ZM578.021 85.3324C566.005 64.4356 546.414 49.416 523.167 43.1469C515.33 41.0572 507.494 40.0124 499.658 40.0124C483.985 40.0124 468.443 44.0611 454.468 52.1587C433.833 64.0437 418.03 84.9406 411.238 109.364C404.447 134.048 407.32 159.777 419.205 180.282L510.759 316.112L564.699 236.443C599.832 175.581 603.881 130.13 578.021 85.3324ZM526.693 29.9558C553.467 37.2697 575.931 54.5096 589.906 78.5409C610.542 114.588 613.676 151.419 599.048 194.649C634.051 151.81 663.306 132.35 710.846 132.35C768.182 132.35 814.939 178.976 814.939 236.443C814.939 275.232 793.65 308.928 762.174 326.952L914.068 326.952C940.45 326.952 962 348.502 962 374.884L962 494.649C962 521.031 940.45 542.581 914.068 542.581L898.134 542.581L898.134 949.677C898.134 976.059 876.584 997.609 850.202 997.609L173.929 997.609C147.546 997.609 125.997 976.059 125.997 949.677L125.997 542.45L109.932 542.45C83.5498 542.45 62 520.901 62 494.518L62 374.753C62 348.371 83.5498 326.821 109.932 326.821L261.695 326.821C230.219 308.928 209.061 275.102 209.061 236.312C209.061 178.846 255.687 132.22 313.154 132.22C348.156 132.22 373.363 142.929 398.308 165.785C392.562 146.586 392.431 125.82 397.916 105.837C405.753 77.8879 423.776 54.1177 447.546 40.2736C471.708 26.5601 499.788 22.7725 526.693 29.9558Z" fill="#4f46a3" fill-rule="nonzero" opacity="1" stroke="#4f46a3" stroke-linecap="butt" stroke-linejoin="round" stroke-width="40" vectornator:layerName="path"/>
</g>
</svg>
