<?xml version="1.0" encoding="utf-8"?>
<!-- Uploaded to: SVG Repo, www.svgrepo.com, Generator: SVG Repo Mixer Tools -->
<svg width="800px" height="800px" viewBox="0 0 1024 1024" class="icon"  version="1.1" xmlns="http://www.w3.org/2000/svg"><path d="M823.698043 230.909107l-572.248834-2.886804-66.268603-19.491517 0.732091 720.102401 52.752096 42.122394h591.423859" fill="#5FCEFF" /><path d="M737.378465 55.079442v175.829665h-463.550935c-48.528988 0-87.914833-39.353876-87.914833-87.914833 0-24.296463 9.846461-46.259186 25.767038-62.179763 15.920577-15.888608 37.883301-25.735069 62.147795-25.735069h463.550935z" fill="#8B87C1" /><path d="M622.83343 324.706241h112.946583v343.123599h-112.946583z" fill="#FF4893" /><path d="M830.088652 253.287428h-556.261122c-60.814686 0-110.293154-49.478468-110.293154-110.293154 0-29.459461 11.476882-57.160626 32.320689-78.004433 20.866186-20.827823 48.554563-32.28872 77.972465-32.28872h463.550935a22.378321 22.378321 0 1 1 0 44.756642h-463.550935c-17.480666 0-33.935125 6.815797-46.339109 19.194205a65.120914 65.120914 0 0 0-19.197403 46.342306c0 36.137792 29.39872 65.536512 65.536512 65.536512h556.261122a22.378321 22.378321 0 1 1 0 44.756642z" fill="#4F46A3" /><path d="M185.912697 907.054091a22.378321 22.378321 0 0 1-22.378321-22.378321v-741.681496a22.378321 22.378321 0 1 1 44.756642 0v741.681496a22.378321 22.378321 0 0 1-22.378321 22.378321zM830.088652 991.772021a22.378321 22.378321 0 0 1-22.378321-22.378321v-738.484593a22.378321 22.378321 0 1 1 44.756642 0v738.484593a22.378321 22.378321 0 0 1-22.378321 22.378321zM737.378465 253.287428a22.378321 22.378321 0 0 1-22.378321-22.378321v-175.829665a22.378321 22.378321 0 1 1 44.756642 0v175.829665a22.378321 22.378321 0 0 1-22.378321 22.378321zM273.82753 886.274222a22.378321 22.378321 0 0 1-22.378321-22.378321v-521.095189a22.378321 22.378321 0 1 1 44.756642 0v521.095189a22.378321 22.378321 0 0 1-22.378321 22.378321z" fill="#4F46A3" /><path d="M830.088652 994.968924h-556.261122c-60.814686 0-110.293154-49.478468-110.293154-110.293154a22.378321 22.378321 0 1 1 44.756642 0c0 36.137792 29.39872 65.536512 65.536512 65.536512h556.261122a22.378321 22.378321 0 1 1 0 44.756642zM735.780013 690.204964h-112.946583a22.378321 22.378321 0 0 1-22.378321-22.378321v-343.123599a22.378321 22.378321 0 0 1 22.378321-22.378321h112.946583a22.378321 22.378321 0 0 1 22.378321 22.378321v343.123599c0 12.362424-10.015897 22.378321-22.378321 22.378321z m-90.568262-44.756642h68.189941v-298.366957h-68.189941v298.366957zM735.780013 131.773145H195.567344a22.378321 22.378321 0 1 1 0-44.756642h540.212669a22.378321 22.378321 0 1 1 0 44.756642zM735.780013 192.546271H195.567344a22.378321 22.378321 0 1 1 0-44.756642h540.212669a22.378321 22.378321 0 1 1 0 44.756642z" fill="#4F46A3" /></svg>