<?xml version="1.0" encoding="UTF-8" standalone="no"?>
<!DOCTYPE svg PUBLIC "-//W3C//DTD SVG 1.1//EN" "http://www.w3.org/Graphics/SVG/1.1/DTD/svg11.dtd">
<!-- Created with Vectornator (http://vectornator.io/) -->
<svg height="100%" stroke-miterlimit="10" style="fill-rule:nonzero;clip-rule:evenodd;stroke-linecap:round;stroke-linejoin:round;" version="1.1" viewBox="0 0 1024 1024" width="100%" xml:space="preserve" xmlns="http://www.w3.org/2000/svg" xmlns:vectornator="http://vectornator.io" xmlns:xlink="http://www.w3.org/1999/xlink">
<defs/>
<g id="Untitled" vectornator:layerName="Untitled">
<g opacity="1" vectornator:layerName="g">
<path d="M437.819 302.007L347.487 476.761C429.063 443.423 516.112 389.972 587.373 304.308L567.01 264.901C550.54 273.432 531.826 278.253 511.999 278.253C492.172 278.253 473.472 273.43 457.001 264.901L437.819 302.007Z" fill="#ffc722" fill-rule="nonzero" opacity="1" stroke="none" vectornator:layerName="path"/>
<path d="M587.371 304.308C516.108 389.972 429.059 443.423 347.485 476.761L228.627 706.674C342.666 689.058 537.193 632.965 665.091 454.656L587.371 304.308Z" fill="#f9eacd" fill-rule="nonzero" opacity="1" stroke="none" vectornator:layerName="path"/>
<path d="M665.093 454.654C537.195 632.959 342.664 689.054 228.629 706.672L167.929 824.096C167.929 824.096 523.654 829.924 710.959 543.387L665.093 454.654Z" fill="#ffc722" fill-rule="nonzero" opacity="1" stroke="none" vectornator:layerName="path"/>
<path d="M710.959 543.387C523.653 829.924 167.927 824.096 167.927 824.096L129.58 898.277C183.238 929.248 248.653 951.995 319.561 966.432C387.557 959.044 641.005 917.685 793.6 703.262L710.959 543.387Z" fill="#f9eacd" fill-rule="nonzero" opacity="1" stroke="none" vectornator:layerName="path"/>
<path d="M793.604 703.264C641.007 917.687 387.559 959.046 319.565 966.432C424.794 987.891 542.11 991.045 650.988 975.684C719.566 934.867 787.793 877.404 841.823 796.54L793.604 703.264Z" fill="#ffc722" fill-rule="nonzero" opacity="1" stroke="none" vectornator:layerName="path"/>
<path d="M841.821 796.544C787.791 877.408 719.564 934.869 650.986 975.688C742.019 962.875 827.162 937.112 894.418 898.28L841.821 796.544Z" fill="#f9eacd" fill-rule="nonzero" opacity="1" stroke="none" vectornator:layerName="path"/>
<path d="M566.999 264.9C605.468 244.972 631.755 204.807 631.755 158.498C631.755 92.3545 578.145 38.7458 511.999 38.7458C445.865 38.7458 392.247 92.3564 392.247 158.498C392.247 204.807 418.54 244.98 457.003 264.9C463.273 268.146 469.872 270.858 476.738 272.971C487.882 276.403 499.726 278.251 512.001 278.251C531.824 278.253 550.538 273.43 566.999 264.9Z" fill="#ff4893" fill-rule="nonzero" opacity="1" stroke="none" vectornator:layerName="path"/>
</g>
<g opacity="1" vectornator:layerName="g">
<path d="M912.696 888.828L605.696 294.945C605.667 294.889 605.636 294.827 605.607 294.771L593.98 272.28C629.288 246.772 652.333 205.28 652.333 158.49C652.333 81.1119 589.378 18.1608 511.997 18.1608C434.62 18.1608 371.667 81.1119 371.667 158.49C371.667 205.28 394.712 246.768 430.02 272.28L419.551 292.537C419.518 292.593 419.491 292.651 419.462 292.711L111.304 888.828C106.251 898.595 109.772 910.603 119.294 916.097C218.075 973.132 361.328 1005.84 512.312 1005.84C560.218 1005.84 607.356 1002.52 652.553 996.161C653.477 996.094 654.395 995.959 655.305 995.764C751.079 982.017 837.988 954.617 904.706 916.097C914.228 910.603 917.749 898.595 912.696 888.828ZM242.148 725.326C335.065 709.745 465.526 671.268 579.061 576.929C587.802 569.668 589 556.694 581.739 547.951C574.478 539.21 561.503 538.012 552.76 545.273C458.167 623.875 350.536 661.226 266.138 678.925L362.356 492.797C449.196 456.224 523.228 405.085 582.911 340.484L687.098 542.033C612.503 651.108 504.036 728.149 364.485 771.113C297.057 791.871 237.792 799.352 202.49 802.036L242.148 725.326ZM557.469 291.27L562.718 301.426C516.093 354.736 459.311 398.809 393.281 432.963L453.768 315.956C463.294 309.312 472.586 302.455 481.524 295.45C491.341 297.638 501.532 298.822 511.997 298.822C525.099 298.822 537.775 296.978 549.816 293.606C550.808 293.328 551.801 293.056 552.789 292.759C553.553 292.526 554.307 292.283 555.063 292.036C555.866 291.777 556.672 291.544 557.469 291.27ZM511.997 59.3154C566.684 59.3154 611.176 103.807 611.176 158.49C611.176 197.731 588.259 231.724 555.11 247.789C555 247.845 554.894 247.899 554.784 247.949C547.698 251.348 540.146 253.933 532.258 255.576C532.094 255.609 531.932 255.644 531.772 255.681C530.393 255.958 528.998 256.203 527.601 256.423C527.183 256.491 526.762 256.552 526.34 256.612C525.095 256.794 523.843 256.958 522.582 257.089C521.932 257.156 521.27 257.206 520.616 257.262C519.524 257.359 518.429 257.455 517.323 257.515C516.278 257.567 515.223 257.583 514.165 257.608C513.442 257.619 512.726 257.66 511.999 257.66C511.276 257.66 510.556 257.619 509.837 257.608C508.779 257.583 507.722 257.569 506.673 257.515C505.571 257.455 504.48 257.359 503.39 257.262C502.732 257.206 502.07 257.158 501.416 257.089C500.158 256.958 498.908 256.79 497.666 256.612C497.24 256.552 496.813 256.491 496.389 256.423C494.998 256.203 493.611 255.956 492.236 255.681C492.068 255.644 491.894 255.609 491.725 255.571C483.852 253.927 476.315 251.35 469.241 247.959C469.112 247.899 468.989 247.839 468.859 247.773C435.722 231.7 412.822 197.72 412.822 158.485C412.822 103.807 457.314 59.3154 511.997 59.3154ZM157.084 889.881L180.544 844.506C209.707 843.613 284.779 838.533 375.223 810.873C442.362 790.336 504.022 761.533 558.493 725.259C617.035 686.274 667.294 638.538 708.326 583.104L769.477 701.393C701.836 791.736 614.195 847.338 551.537 878.365C541.354 883.404 537.185 895.751 542.229 905.935C545.817 913.184 553.109 917.386 560.685 917.386C563.75 917.386 566.865 916.699 569.801 915.245C632.859 884.021 719.753 829.303 790.295 741.668L817.877 795.025C772.911 859.217 714.474 913.263 643.974 955.844C601.589 961.642 557.349 964.683 512.31 964.683C377.009 964.687 248.967 937.572 157.084 889.881ZM742.404 936.499C778.758 906.5 811.075 872.921 839.031 835.941L866.916 889.881C830.474 908.798 788.362 924.466 742.404 936.499Z" fill="#4f46a3" fill-rule="nonzero" opacity="1" stroke="none" vectornator:layerName="path"/>
<path d="M611.409 539.536C616.892 539.536 622.357 537.357 626.408 533.051L627.417 532.005C635.285 523.807 635.021 510.782 626.823 502.905C618.624 495.037 605.599 495.301 597.729 503.5L596.423 504.862C588.639 513.139 589.04 526.168 597.323 533.948C601.293 537.688 606.357 539.536 611.409 539.536Z" fill="#4f46a3" fill-rule="nonzero" opacity="1" stroke="none" vectornator:layerName="path"/>
<path d="M494.628 902.405L493.266 902.924C482.623 906.903 477.218 918.757 481.198 929.406C484.288 937.678 492.134 942.786 500.473 942.786C502.869 942.786 505.305 942.363 507.676 941.474L509.212 940.892C519.843 936.864 525.192 924.984 521.166 914.357C517.132 903.73 505.253 898.379 494.628 902.405Z" fill="#4f46a3" fill-rule="nonzero" opacity="1" stroke="none" vectornator:layerName="path"/>
</g>
</g>
</svg>
