<?xml version="1.0" encoding="utf-8"?>
<!-- Uploaded to: SVG Repo, www.svgrepo.com, Generator: SVG Repo Mixer Tools -->
<svg width="800px" height="800px" viewBox="0 0 1024 1024" class="icon"  version="1.1" xmlns="http://www.w3.org/2000/svg"><path d="M106.0864 104.68352l7.54688 145.27488 75.2128 105.59488 157.95712-196.1984-114.25792-54.67136H106.0864z m794.09152-20.31616l9.09824 145.18784-62.65856 113.48992-179.33312-176.8704 107.264-67.35872 125.62944-14.44864z" fill="#5FCEFF" /><path d="M851.36896 725.10464v101.88288c0 44.56448-36.12672 80.72192-80.72192 80.72192H250.38336c-44.56448 0-80.72192-36.15744-80.72192-80.72192v-109.07648c0 44.5952 36.15744 80.72192 80.72192 80.72192h520.26368c44.5952 0 80.72192-36.12672 80.72192-80.72192v7.1936z" fill="#FF4893" /><path d="M637.24032 168.07936a340.90496 340.90496 0 0 1 114.28864 75.50976c61.70112 61.70112 99.84 146.89792 99.84 241.01376v233.30816c0 44.5952-36.12672 80.72192-80.72192 80.72192H250.38336c-44.56448 0-80.72192-36.12672-80.72192-80.72192V484.60288c0-188.23168 152.62208-340.85376 340.85376-340.85376 44.78976 0 87.56224 8.63232 126.72512 24.33024z m83.85536 169.72288a23.20896 23.20896 0 0 0-6.8096-16.46592 23.05024 23.05024 0 0 0-16.43008-6.8096 23.20896 23.20896 0 0 0-16.46592 6.8096 23.1936 23.1936 0 0 0-6.8096 16.46592c0 6.4256 2.59072 12.2112 6.8096 16.43008a23.33184 23.33184 0 0 0 16.46592 6.8096 23.23968 23.23968 0 0 0 23.23968-23.23968z m-363.52 0a23.20896 23.20896 0 0 0-6.8096-16.46592c-4.21888-4.21888-10.04032-6.8096-16.46592-6.8096s-12.24192 2.59072-16.43008 6.8096a23.1936 23.1936 0 0 0-6.8096 16.46592c0 6.4256 2.59072 12.2112 6.8096 16.43008a23.26528 23.26528 0 0 0 39.7056-16.43008z" fill="#FFB578" /><path d="M714.28608 321.33632a23.1936 23.1936 0 0 1 6.8096 16.46592 23.23968 23.23968 0 0 1-23.23968 23.23968 23.33696 23.33696 0 0 1-16.46592-6.8096 23.12192 23.12192 0 0 1-6.8096-16.43008c0-6.4256 2.59072-12.24192 6.8096-16.46592a23.1936 23.1936 0 0 1 16.46592-6.8096c6.4256 0 12.24192 2.59072 16.43008 6.8096z m-363.52 0a23.2704 23.2704 0 0 1-32.896 32.896 23.12192 23.12192 0 0 1-6.8096-16.43008c0-6.4256 2.59072-12.24192 6.8096-16.46592a23.06048 23.06048 0 0 1 16.43008-6.8096 23.1936 23.1936 0 0 1 16.46592 6.8096z" fill="#8B87C1" /><path d="M334.30528 383.42144a45.32224 45.32224 0 0 1-32.256-13.36832 45.32736 45.32736 0 0 1-13.3632-32.256c0-12.20096 4.74624-23.67488 13.3632-32.28672a45.1584 45.1584 0 0 1 32.256-13.3632 45.38368 45.38368 0 0 1 32.28672 13.35808 45.37344 45.37344 0 0 1 13.36832 32.29184c-0.00512 25.15968-20.48512 45.62432-45.65504 45.62432z" fill="#4F46A3" /><path d="M334.30528 336.90624c-0.17408 0-0.37888 0.02048-0.54784 0.19456-0.2816 0.2816-0.31232 0.49664-0.31232 0.70144 0 0.18432 0.02048 0.36864 0.25088 0.60416a0.80896 0.80896 0 0 0 0.60928 0.26112 0.89088 0.89088 0 0 0 0.896-0.86528 0.83456 0.83456 0 0 0-0.26112-0.64512 0.82944 0.82944 0 0 0-0.63488-0.25088zM697.856 383.42144a45.5168 45.5168 0 0 1-32.2304-13.30176 45.3632 45.3632 0 0 1-13.42464-32.31744c0-12.20096 4.74624-23.67488 13.3632-32.28672a45.37856 45.37856 0 0 1 32.29184-13.3632c12.24192 0 23.71584 4.76672 32.3072 13.41952a45.29664 45.29664 0 0 1 13.30688 32.23552c0.00512 25.14944-20.45952 45.61408-45.61408 45.61408z" fill="#4F46A3" /><path d="M697.856 336.90624a0.8192 0.8192 0 0 0-0.64512 0.26112 0.80896 0.80896 0 0 0-0.25088 0.64c0 0.18432 0.02048 0.36864 0.25088 0.60416 0.26112 0.26112 0.5376 0.26112 0.64512 0.26112a0.86528 0.86528 0 0 0 0.86528-0.86528 0.84992 0.84992 0 0 0-0.256-0.64512 0.77312 0.77312 0 0 0-0.60928-0.256z" fill="#4F46A3" /><path d="M587.3664 532.1728v65.024c0 37.7856-30.72 68.5056-68.5056 68.5056-18.3296 0-35.4816-7.1168-48.4352-20.0704a68.12672 68.12672 0 0 1-20.0192-48.4352v-67.8912c17.4592-9.3184 33.0752-15.7696 46.08-30.5152v105.472c0 12.3392 10.0352 22.3744 22.3744 22.3744s22.3744-10.0352 22.3744-22.3744v-105.472c13.2608 13.6192 28.8256 24.9856 46.1312 33.3824z" fill="#FF4893" /><path d="M658.4832 503.7056c12.3392 0 22.3744 10.0352 22.3744 22.3744 0 12.3904-10.0352 22.3744-22.3744 22.3744-8.96 0-17.7664-0.7168-26.368-2.1504v50.8928c0 62.464-50.7904 113.2544-113.2544 113.2544-30.2592 0-58.7264-11.776-80.0768-33.1776-21.4016-21.4016-33.1776-49.8176-33.1776-80.0768v-51.8656c-10.2912 2.048-20.992 3.1232-31.8976 3.1232-12.3904 0-22.3744-9.984-22.3744-22.3744 0-12.3392 9.984-22.3744 22.3744-22.3744 65.4336 0 118.7328-53.248 118.7328-118.7328a22.3232 22.3232 0 0 1 22.3232-22.3744c0.512 0 0.9216 0.1024 1.4336 0.1024 0.3584 0 0.768-0.1024 1.1776-0.1024 12.3392 0 22.3744 10.0352 22.3744 22.3744 0 65.4848 53.248 118.7328 118.7328 118.7328z m-71.1168 93.4912v-65.024a164.94592 164.94592 0 0 1-46.1312-33.3824v105.472c0 12.3392-10.0352 22.3744-22.3744 22.3744s-22.3744-10.0352-22.3744-22.3744v-105.472c-13.0048 14.7456-28.6208 21.1968-46.08 30.5152v67.8912c0 18.3296 7.1168 35.4816 20.0192 48.4352 12.9536 12.9536 30.1056 20.0704 48.4352 20.0704 37.7856 0 68.5056-30.72 68.5056-68.5056z" fill="#4F46A3" /><path d="M926.49472 95.16544a22.36416 22.36416 0 0 0-17.10592-22.78912c-99.52768-24.59136-202.07104 1.50016-277.38112 69.8624a361.6256 361.6256 0 0 0-121.48736-20.86912 361.29792 361.29792 0 0 0-129.80224 23.99744C303.45216 78.86336 199.88992 55.55712 100.8128 83.1232c-0.3584 0.1024-0.67072 0.2816-1.01888 0.39936a22.41536 22.41536 0 0 0-10.57792 7.45472 22.4512 22.4512 0 0 0-3.92704 7.90016c-0.1024 0.36864-0.27136 0.70656-0.35328 1.08544-21.78048 100.74624 7.68512 202.97216 78.87872 276.22912a361.9072 361.9072 0 0 0-16.53248 108.416v342.38464c0 56.84736 46.24896 103.10144 103.10144 103.10144h520.26368c56.85248 0 103.10144-46.25408 103.10144-103.10144V484.608a363.8272 363.8272 0 0 0-18.47296-114.59584c68.05504-74.4704 94.54592-175.94368 71.2192-274.84672z m-42.0352 17.63328c15.4624 74.91072-2.2528 150.9632-48.36864 210.56512a363.63264 363.63264 0 0 0-68.72576-95.5904 361.3952 361.3952 0 0 0-89.51808-65.64352c58.55232-45.35808 133.00736-63.3344 206.61248-49.3312z m-758.31296 10.1888c73.63072-16.47104 149.08416-0.59904 209.23904 43.48416a365.77792 365.77792 0 0 0-153.28256 163.1232c-47.6928-57.48736-68.096-132.00384-55.95648-206.60736z m702.848 704.00512c0 32.16896-26.17344 58.3424-58.3424 58.3424H250.38336c-32.16896 0-58.3424-26.17344-58.3424-58.3424v-24.1664a102.4512 102.4512 0 0 0 58.3424 18.18624h520.26368a102.4512 102.4512 0 0 0 58.3424-18.18624v24.1664z m0-153.35936v44.27264c0 32.16896-26.17344 58.3424-58.3424 58.3424H250.38336c-32.16896 0-58.3424-26.17344-58.3424-58.3424V688.08192 484.60288c0-175.61088 142.86848-318.47424 318.47424-318.47424a316.88704 316.88704 0 0 1 116.93056 22.1696c0.8192 0.38912 1.65888 0.71168 2.52416 1.00352a316.6976 316.6976 0 0 1 105.73824 70.10816c60.16 60.15488 93.2864 140.12928 93.2864 225.18784v189.03552z" fill="#4F46A3" /></svg>