<?xml version="1.0" encoding="utf-8"?>
<!-- Uploaded to: SVG Repo, www.svgrepo.com, Generator: SVG Repo Mixer Tools -->
<svg width="800px" height="800px" viewBox="0 -1 1026 1026" class="icon"  version="1.1" xmlns="http://www.w3.org/2000/svg"><path d="M1004.21117 682.938403l-153.163622 201.660642h-675.505604l-153.163623-201.660642z" fill="#42BC90" /><path d="M819.302301 486.456745h107.192157v107.192158h-107.192157zM657.50704 486.456745h107.192158v107.192158h-107.192158zM495.743748 486.456745h107.160189v107.192158h-107.160189z" fill="#5FCEFF" /><path d="M158.758203 259.796322h128.675346v352.234773h-128.675346z" fill="#FFB578" /><path d="M851.047548 906.977366h-675.505604a22.365533 22.365533 0 0 1-17.819538-8.845831l-153.163622-201.660641a22.378321 22.378321 0 0 1 17.822734-35.914008h981.832849a22.381518 22.381518 0 0 1 17.822735 35.914008l-153.163623 201.660641a22.394306 22.394306 0 0 1-17.825931 8.845831z m-664.399563-44.756642h653.293522l119.170953-156.904H67.477032l119.170953 156.904zM602.903937 616.027224h-107.163386a22.378321 22.378321 0 0 1-22.378321-22.378321v-107.192158a22.378321 22.378321 0 0 1 22.378321-22.378321h107.163386a22.378321 22.378321 0 0 1 22.378321 22.378321v107.192158a22.378321 22.378321 0 0 1-22.378321 22.378321z m-84.781868-44.756642h62.406744v-62.435516h-62.406744v62.435516zM764.699198 616.027224h-107.188961a22.378321 22.378321 0 0 1-22.378321-22.378321v-107.192158a22.378321 22.378321 0 0 1 22.378321-22.378321h107.188961a22.378321 22.378321 0 0 1 22.378321 22.378321v107.192158a22.378321 22.378321 0 0 1-22.378321 22.378321z m-84.813837-44.756642h62.432319v-62.435516h-62.432319v62.435516zM926.494458 616.027224h-107.192157a22.378321 22.378321 0 0 1-22.378321-22.378321v-107.192158a22.378321 22.378321 0 0 1 22.378321-22.378321h107.192157a22.378321 22.378321 0 0 1 22.378321 22.378321v107.192158a22.378321 22.378321 0 0 1-22.378321 22.378321z m-84.813836-44.756642h62.435515v-62.435516h-62.435515v62.435516z" fill="#4F46A3" /><path d="M977.996566 644.447691a22.378321 22.378321 0 0 1-22.378321-22.378321v-169.691611h-506.485342v169.691611a22.378321 22.378321 0 1 1-44.756643 0v-192.069932a22.378321 22.378321 0 0 1 22.378321-22.378321h551.245182a22.378321 22.378321 0 0 1 22.378321 22.378321v192.069932a22.378321 22.378321 0 0 1-22.381518 22.378321z" fill="#4F46A3" /><path d="M426.754581 644.447691H22.378321a22.378321 22.378321 0 1 1 0-44.756642h404.37626a22.378321 22.378321 0 1 1 0 44.756642z" fill="#4F46A3" /><path d="M287.433549 634.409416h-128.675346a22.378321 22.378321 0 0 1-22.378321-22.378321V259.796322a22.378321 22.378321 0 0 1 22.378321-22.378321h128.675346a22.378321 22.378321 0 0 1 22.378321 22.378321v352.234773a22.378321 22.378321 0 0 1-22.378321 22.378321z m-106.297025-44.756642h83.918704v-307.478131h-83.918704v307.478131zM713.420874 221.785146c-47.195879 0-72.368293-20.517723-92.595099-37.007349-18.455721-15.047822-33.036796-26.930711-64.273735-26.930711-31.265711 0-45.849983 11.889282-64.315294 26.940301-20.220411 16.483232-45.386432 36.997758-92.556736 36.997759s-72.336324-20.514527-92.559933-36.997759c-18.465312-15.051019-33.049583-26.940302-64.315294-26.940301a22.378321 22.378321 0 1 1 0-44.756642c47.195879 0 72.368293 20.517723 92.591901 37.007349 18.458918 15.047822 33.036796 26.930711 64.280129 26.930711 31.240136 0 45.821211-11.882888 64.276932-26.930711 20.226805-16.486429 45.39922-37.007349 92.595098-37.007349 47.170304 0 72.336324 20.514527 92.553539 36.997758 18.465312 15.051019 33.05278 26.940302 64.315295 26.940302a22.378321 22.378321 0 0 1 0.003197 44.756642z" fill="#4F46A3" /><path d="M715.594768 319.802192c-51.192008 0-77.649577-19.277325-100.99656-36.284849-21.253011-15.485798-38.043146-27.717149-74.705229-27.717149a22.378321 22.378321 0 1 1 0-44.756642c51.233567 0 77.707121 19.283719 101.060497 36.300833 21.246617 15.476207 38.027161 27.701164 74.641292 27.701165 36.658887 0 53.449021-12.231351 74.705229-27.713952 23.353376-17.007524 49.817339-36.288046 101.028528-36.288046a22.378321 22.378321 0 1 1 0 44.756642c-36.636508 0-53.423446 12.228154-74.67326 27.707558-23.356573 17.010721-49.830127 36.29444-101.060497 36.29444z" fill="#4F46A3" /></svg>