<?xml version="1.0" encoding="UTF-8" standalone="no"?>
<!DOCTYPE svg PUBLIC "-//W3C//DTD SVG 1.1//EN" "http://www.w3.org/Graphics/SVG/1.1/DTD/svg11.dtd">
<!-- Created with Vectornator (http://vectornator.io/) -->
<svg height="100%" stroke-miterlimit="10" style="fill-rule:nonzero;clip-rule:evenodd;stroke-linecap:round;stroke-linejoin:round;" version="1.1" viewBox="0 0 1024 1024" width="100%" xml:space="preserve" xmlns="http://www.w3.org/2000/svg" xmlns:vectornator="http://vectornator.io" xmlns:xlink="http://www.w3.org/1999/xlink">
<defs/>
<g id="Untitled" vectornator:layerName="Untitled">
<path d="M438.057 161.819L438.057 625.218L357.126 687.395L323.223 776.847L365.221 914.605L449.533 974.419L550.574 985.289L644.844 931.894C644.844 931.894 695.013 849.682 696.477 843.669C697.941 837.656 692.977 735.125 690.777 729.504C688.578 723.884 665.662 666.554 665.662 666.554L587.088 615.06L588.106 161.343" fill="#ff4893" fill-rule="nonzero" opacity="1" stroke="none" vectornator:layerName="path"/>
<g opacity="1" vectornator:layerName="Group 1">
<path d="M512.911 1007.65C395.968 1007.65 300.829 912.511 300.829 795.568C300.829 718.344 343.421 646.98 410.482 609.899L410.482 117.793C410.482 61.2974 456.431 15.3323 512.911 15.3323C569.391 15.3323 615.34 61.2942 615.34 117.793L615.34 609.896C682.398 646.967 724.994 718.335 724.994 795.568C724.994 912.511 629.854 1007.65 512.911 1007.65ZM512.911 60.089C481.112 60.089 455.239 85.9743 455.239 117.793L455.239 623.607C455.238 632.305 450.199 640.215 442.317 643.891C383.555 671.282 345.585 730.818 345.585 795.568C345.585 887.831 420.648 962.894 512.911 962.894C605.174 962.894 680.237 887.834 680.237 795.568C680.237 730.806 642.271 671.267 583.512 643.891C575.624 640.22 570.581 632.307 570.583 623.607L570.583 117.793C570.583 85.9743 544.711 60.089 512.911 60.089Z" fill="#4f46a3" fill-rule="nonzero" opacity="1" stroke="none" vectornator:layerName="path"/>
<path d="M512.911 933.771C438.717 933.771 378.353 873.394 378.353 799.181C378.353 747.126 408.871 699.246 456.102 677.21C467.303 671.983 480.62 676.827 485.846 688.028C491.072 699.229 486.229 712.546 475.028 717.772C443.487 732.487 423.11 764.443 423.11 799.184C423.11 848.717 463.394 889.017 512.911 889.017C562.428 889.017 602.712 848.72 602.712 799.184C602.712 786.825 612.731 776.806 625.09 776.806C637.45 776.806 647.469 786.825 647.469 799.184C647.469 873.394 587.105 933.771 512.911 933.771Z" fill="#4f46a3" fill-rule="nonzero" opacity="1" stroke="none" vectornator:layerName="path 1"/>
<path d="M512.911 179.174L432.861 179.174C420.501 179.174 410.482 169.155 410.482 156.795C410.482 144.436 420.501 134.417 432.861 134.417L512.911 134.417C525.27 134.417 535.289 144.436 535.289 156.795C535.289 169.155 525.27 179.174 512.911 179.174Z" fill="#4f46a3" fill-rule="nonzero" opacity="1" stroke="none" vectornator:layerName="path 2"/>
<path d="M592.898 273.053L432.925 273.053C420.565 273.053 410.546 263.034 410.546 250.674C410.546 238.315 420.565 228.296 432.925 228.296L592.898 228.296C605.257 228.296 615.276 238.315 615.276 250.674C615.276 263.034 605.257 273.053 592.898 273.053Z" fill="#4f46a3" fill-rule="nonzero" opacity="1" stroke="none" vectornator:layerName="path 3"/>
<path d="M592.898 368.511L432.925 368.511C420.565 368.511 410.546 358.492 410.546 346.133C410.546 333.773 420.565 323.754 432.925 323.754L521.118 323.754L592.898 323.754C605.257 323.754 615.276 333.773 615.276 346.133C615.276 358.492 605.257 368.511 592.898 368.511Z" fill="#4f46a3" fill-rule="nonzero" opacity="1" stroke="none" vectornator:layerName="path 4"/>
<path d="M592.898 465.154L432.925 465.154C420.565 465.154 410.546 455.135 410.546 442.775C410.546 430.416 420.565 420.397 432.925 420.397L592.898 420.397C605.257 420.397 615.276 430.416 615.276 442.775C615.276 455.135 605.257 465.154 592.898 465.154Z" fill="#4f46a3" fill-rule="nonzero" opacity="1" stroke="none" vectornator:layerName="path 5"/>
</g>
<path d="M157.608 397.902C147.599 408.15 137.071 445.55 145.615 470.775C163.086 522.354 239.669 498.915 272.232 560.025C283.282 580.762 278.415 609.978 273.808 626.098" fill="none" opacity="1" stroke="#ff485a" stroke-linecap="round" stroke-linejoin="round" stroke-width="40" vectornator:layerName="Curve 1"/>
<path d="M257.111 103.431C249.876 128.175 248.895 162.299 258.403 178.561C280.134 215.731 345.775 193.921 353.163 242.339C355.671 258.77 341.155 288.093 341.155 288.093" fill="none" opacity="1" stroke="#ff485a" stroke-linecap="round" stroke-linejoin="round" stroke-width="31.9583" vectornator:layerName="Curve 2"/>
<path d="M905.619 179.646C939.354 212.698 917.123 291.784 892.404 321.089C835.907 388.066 753.821 321.705 710.978 416.173C696.439 448.23 694.718 490.245 698.407 512" fill="none" opacity="1" stroke="#ff485a" stroke-linecap="round" stroke-linejoin="round" stroke-width="40" vectornator:layerName="Curve 3"/>
</g>
</svg>
