<?xml version="1.0" encoding="UTF-8" standalone="no"?>
<!DOCTYPE svg PUBLIC "-//W3C//DTD SVG 1.1//EN" "http://www.w3.org/Graphics/SVG/1.1/DTD/svg11.dtd">
<!-- Created with Vectornator (http://vectornator.io/) -->
<svg height="100%" stroke-miterlimit="10" style="fill-rule:nonzero;clip-rule:evenodd;stroke-linecap:round;stroke-linejoin:round;" version="1.1" viewBox="0 0 1024 1024" width="100%" xml:space="preserve" xmlns="http://www.w3.org/2000/svg" xmlns:vectornator="http://vectornator.io" xmlns:xlink="http://www.w3.org/1999/xlink">
<defs/>
<g id="Untitled" vectornator:layerName="Untitled">
<path d="M439.92 465.154L440.277 626.593L357.126 687.395L323.223 776.847L365.221 914.605L449.533 974.419L550.574 985.289L644.844 931.894C644.844 931.894 695.013 849.682 696.477 843.669C697.941 837.656 692.977 735.125 690.777 729.504C688.578 723.884 665.662 666.554 665.662 666.554L592.853 615.404L593.536 465.154" fill="#5fceff" fill-rule="nonzero" opacity="1" stroke="none" vectornator:layerName="path"/>
<g opacity="1" vectornator:layerName="Group 1">
<path d="M512.911 1007.65C395.968 1007.65 300.829 912.511 300.829 795.568C300.829 718.344 343.421 646.98 410.482 609.899L410.482 117.793C410.482 61.2974 456.431 15.3323 512.911 15.3323C569.391 15.3323 615.34 61.2942 615.34 117.793L615.34 609.896C682.398 646.967 724.994 718.335 724.994 795.568C724.994 912.511 629.854 1007.65 512.911 1007.65ZM512.911 60.089C481.112 60.089 455.239 85.9743 455.239 117.793L455.239 623.607C455.238 632.305 450.199 640.215 442.317 643.891C383.555 671.282 345.585 730.818 345.585 795.568C345.585 887.831 420.648 962.894 512.911 962.894C605.174 962.894 680.237 887.834 680.237 795.568C680.237 730.806 642.271 671.267 583.512 643.891C575.624 640.22 570.581 632.307 570.583 623.607L570.583 117.793C570.583 85.9743 544.711 60.089 512.911 60.089Z" fill="#4f46a3" fill-rule="nonzero" opacity="1" stroke="none" vectornator:layerName="path"/>
<path d="M512.911 933.771C438.717 933.771 378.353 873.394 378.353 799.181C378.353 747.126 408.871 699.246 456.102 677.21C467.303 671.983 480.62 676.827 485.846 688.028C491.072 699.229 486.229 712.546 475.028 717.772C443.487 732.487 423.11 764.443 423.11 799.184C423.11 848.717 463.394 889.017 512.911 889.017C562.428 889.017 602.712 848.72 602.712 799.184C602.712 786.825 612.731 776.806 625.09 776.806C637.45 776.806 647.469 786.825 647.469 799.184C647.469 873.394 587.105 933.771 512.911 933.771Z" fill="#4f46a3" fill-rule="nonzero" opacity="1" stroke="none" vectornator:layerName="path 1"/>
<path d="M512.911 179.174L432.861 179.174C420.501 179.174 410.482 169.155 410.482 156.795C410.482 144.436 420.501 134.417 432.861 134.417L512.911 134.417C525.27 134.417 535.289 144.436 535.289 156.795C535.289 169.155 525.27 179.174 512.911 179.174Z" fill="#4f46a3" fill-rule="nonzero" opacity="1" stroke="none" vectornator:layerName="path 2"/>
<path d="M592.898 273.053L432.925 273.053C420.565 273.053 410.546 263.034 410.546 250.674C410.546 238.315 420.565 228.296 432.925 228.296L592.898 228.296C605.257 228.296 615.276 238.315 615.276 250.674C615.276 263.034 605.257 273.053 592.898 273.053Z" fill="#4f46a3" fill-rule="nonzero" opacity="1" stroke="none" vectornator:layerName="path 3"/>
<path d="M592.898 368.511L432.925 368.511C420.565 368.511 410.546 358.492 410.546 346.133C410.546 333.773 420.565 323.754 432.925 323.754L521.118 323.754L592.898 323.754C605.257 323.754 615.276 333.773 615.276 346.133C615.276 358.492 605.257 368.511 592.898 368.511Z" fill="#4f46a3" fill-rule="nonzero" opacity="1" stroke="none" vectornator:layerName="path 4"/>
<path d="M592.898 465.154L432.925 465.154C420.565 465.154 410.546 455.135 410.546 442.775C410.546 430.416 420.565 420.397 432.925 420.397L592.898 420.397C605.257 420.397 615.276 430.416 615.276 442.775C615.276 455.135 605.257 465.154 592.898 465.154Z" fill="#4f46a3" fill-rule="nonzero" opacity="1" stroke="none" vectornator:layerName="path 5"/>
</g>
<path d="M237.026 161.701C237.026 122.674 268.663 91.0368 307.69 91.0368C346.716 91.0368 378.353 122.674 378.353 161.701C378.353 200.727 346.716 232.364 307.69 232.364C268.663 232.364 237.026 200.727 237.026 161.701Z" fill="#5fceff" fill-rule="nonzero" opacity="1" stroke="none" vectornator:layerName="Oval 1"/>
<path d="M707.31 543.955C707.31 510.235 734.646 482.899 768.366 482.899C802.087 482.899 829.423 510.235 829.423 543.955C829.423 577.675 802.087 605.011 768.366 605.011C734.646 605.011 707.31 577.675 707.31 543.955Z" fill="#5fceff" fill-rule="nonzero" opacity="1" stroke="none" vectornator:layerName="Oval 2"/>
<path d="M816.944 93.3867L817.981 368.511M786.431 108.787L817.117 139.241L847.571 108.556M787.353 353.342L817.808 322.657L848.493 353.111M698.474 162.615L937.257 299.279M696.743 193.327L734.288 183.115L724.076 145.57M911.649 316.325L901.436 278.78L938.982 268.569M936.737 161.717L698.99 300.177M911.007 144.866L901.079 182.486L938.699 192.415M697.035 269.479L734.656 279.408L724.727 317.028" fill="none" opacity="1" stroke="#5fceff" stroke-linecap="round" stroke-linejoin="round" stroke-width="26" vectornator:layerName="path 6"/>
<path d="M289.361 358.96L115.753 607.331M252.119 353.468L260.427 400.355L307.313 392.048M97.8004 574.243L144.688 565.936L152.995 612.823M138.776 346.133L267.067 620.667M117.733 372.686L158.016 387.31L172.64 347.028M233.196 619.769L247.82 579.485L288.103 594.11M353.87 496.481L51.969 470.317M341.394 464.984L308.589 492.559L336.162 525.365M69.6841 441.436L97.2573 474.244L64.4514 501.817" fill="none" opacity="1" stroke="#5fceff" stroke-linecap="round" stroke-linejoin="round" stroke-width="28" vectornator:layerName="path 7"/>
</g>
</svg>
