<?xml version="1.0" encoding="utf-8"?>
<!-- Uploaded to: SVG Repo, www.svgrepo.com, Generator: SVG Repo Mixer Tools -->
<svg width="800px" height="800px" viewBox="0 -2 1028 1028" class="icon"  version="1.1" xmlns="http://www.w3.org/2000/svg"><path d="M959.662327 500.874778c27.845025 19.373232 46.067372 51.598014 46.067372 88.138615 0 29.571353-11.988386 56.393369-31.393587 75.79857s-46.227217 31.425556-75.862508 31.425557H37.707471l-7.288939-3.069027V247.584153h690.339234l67.390715 71.450782-0.383628 0.351659h-178.227342v162.370704h288.936093c22.72998 0 43.82954 7.065156 61.188723 19.11748z m-432.892635-19.11748v-162.370704h-162.402673v162.370704h162.402673z m-245.106553 0v-162.370704h-162.402673v162.370704h162.402673z" fill="#5FCEFF" /><path d="M788.148481 319.034935l171.513846 181.839843a106.949193 106.949193 0 0 0-61.188723-19.11748h-288.936093v-162.370704h178.227342l0.383628-0.351659z" fill="#FFB578" /><path d="M364.367019 319.386594h162.402673v162.370704h-162.402673z" fill="#FF4893" /><path d="M119.260466 319.386594h162.402673v162.370704h-162.402673z" fill="#42BC90" /><path d="M898.473604 718.615841H37.707471a22.378321 22.378321 0 1 1 0-44.756642h860.766133c22.67883 0 44.002173-8.833043 60.037838-24.871905 16.019681-16.016484 24.843133-37.314252 24.843133-59.973901a85.047211 85.047211 0 0 0-36.470269-69.769211 84.494146 84.494146 0 0 0-48.410702-15.108563h-126.56539a22.378321 22.378321 0 1 1 0-44.756642h126.56539c26.598233 0 52.17026 7.992258 73.953957 23.113608a129.826231 129.826231 0 0 1 55.683656 106.520808c0 34.616066-13.478143 67.154144-37.950435 91.62324-24.491474 24.491474-57.051931 37.979208-91.687178 37.979208z" fill="#4F46A3" /><path d="M30.418532 715.546814a22.378321 22.378321 0 0 1-22.378321-22.378321V247.584153a22.378321 22.378321 0 0 1 22.378321-22.378321h690.339234a22.378321 22.378321 0 1 1 0 44.756642H52.796853v423.206019a22.378321 22.378321 0 0 1-22.378321 22.378321z" fill="#4F46A3" /><path d="M281.663139 504.135619h-162.402673a22.378321 22.378321 0 0 1-22.378321-22.378321v-162.370704a22.378321 22.378321 0 0 1 22.378321-22.378321h162.402673a22.378321 22.378321 0 0 1 22.378321 22.378321v162.370704a22.378321 22.378321 0 0 1-22.378321 22.378321z m-140.024352-44.756642h117.646031v-117.614062h-117.646031v117.614062zM526.769692 504.135619h-162.402673a22.378321 22.378321 0 0 1-22.378321-22.378321v-162.370704a22.378321 22.378321 0 0 1 22.378321-22.378321h162.402673a22.378321 22.378321 0 0 1 22.378321 22.378321v162.370704a22.378321 22.378321 0 0 1-22.378321 22.378321z m-140.024352-44.756642h117.646031v-117.614062h-117.646031v117.614062zM771.908214 504.135619h-162.370703a22.378321 22.378321 0 0 1-22.378321-22.378321v-162.370704a22.378321 22.378321 0 0 1 22.378321-22.378321h178.227342a22.378321 22.378321 0 1 1 0 44.756642h-155.849021v117.614062h139.992382a22.378321 22.378321 0 1 1 0 44.756642zM883.160438 798.282664H23.481253a22.378321 22.378321 0 1 1 0-44.756642h859.679185a22.378321 22.378321 0 1 1 0 44.756642z" fill="#4F46A3" /><path d="M961.871387 525.586838a22.314383 22.314383 0 0 1-16.272236-7.010809l-241.123212-255.637151a22.378321 22.378321 0 0 1 32.563654-30.706253l241.097637 255.611576a22.384715 22.384715 0 0 1-0.901527 31.636552 22.333564 22.333564 0 0 1-15.364316 6.106085z" fill="#4F46A3" /></svg>