<?xml version="1.0" encoding="utf-8"?>
<!-- Uploaded to: SVG Repo, www.svgrepo.com, Generator: SVG Repo Mixer Tools -->
<svg width="800px" height="800px" viewBox="0 0 1024 1024" class="icon"  version="1.1" xmlns="http://www.w3.org/2000/svg"><path d="M661.982704 310.703806c52.237395 0 52.812838 62.62733 103.963286 63.970029-35.709407 115.184415-136.156099 198.176017-254.44151 198.176017h-3.196903c-139.257095 0-253.738191-114.960632-267.069277-262.114077 50.990603 1.470575 51.629983 63.970029 103.803441 63.970029 52.844807 0 52.844807-64.001998 105.625675-64.001998 52.844807 0 52.844807 64.001998 105.657644 64.001998s52.812838-64.001998 105.657644-64.001998z" fill="#FF4893" /><path d="M509.906029 773.647329l138.425899 166.238956h-276.851799z" fill="#5FCEFF" /><path d="M511.50448 595.228173h-3.196903c-72.982099 0-142.7609-29.238875-196.488052-82.336237-52.93432-52.314121-85.916768-123.390865-92.870032-200.138915a340.719528 340.719528 0 0 1-1.400244-30.824539v-196.289844a22.378321 22.378321 0 1 1 44.756642 0v196.289844c0 8.900178 0.409204 17.909051 1.21802 26.774062 12.487103 137.83767 117.719559 241.768986 244.783666 241.768987h3.196903c105.574525 0 199.237389-73.31138 233.063819-182.424876 8.586881-27.63403 12.937866-56.604365 12.937867-86.118173v-196.289844a22.378321 22.378321 0 1 1 44.756642 0v196.289844c0 34.018245-5.028728 67.45785-14.948719 99.382123-39.663976 127.946452-150.506996 213.917567-275.809609 213.917568z" fill="#4F46A3" /><path d="M779.884487 108.020155H239.92757a22.378321 22.378321 0 1 1 0-44.756642h539.956917a22.378321 22.378321 0 1 1 0 44.756642zM239.384097 288.325485c0.943086 0 1.844613 0.009591 2.736549 0.05115 35.188311 1.112522 53.784696 23.637901 67.371533 40.092361 12.94426 15.677612 20.405832 23.858487 35.549562 23.858487 15.175699 0 22.640467-8.190465 35.587924-23.880866 13.973663-16.930798 33.107127-40.121133 70.037751-40.121132 36.972183 0 56.121632 23.199925 70.104886 40.140314 12.941063 15.680809 20.399438 23.861684 35.549561 23.861684s22.611695-8.180875 35.552758-23.861684c13.983254-16.940389 33.132703-40.140314 70.108083-40.140314 36.943411 0 56.086466 23.190334 70.066523 40.124329 12.723674 15.415466 20.041385 23.474859 34.481796 23.85529 0.233374 0.006394 0.466748 0.015985 0.696925 0.028773l0.380431-0.006394c12.359227 0 9.590709 10.019094 9.590709 22.378321s-31.329649 22.378321-9.590709 22.378321c-0.875951 0-1.710343-0.009591-2.535144-0.047954-35.300203-1.045387-53.928557-23.609129-67.540969-40.095557-12.941063-15.677612-20.402635-23.858487-35.549562-23.858487-15.175699 0-22.640467 8.187269-35.591121 23.874471-13.97686 16.933995-33.119915 40.127526-70.06972 40.127527s-56.089663-23.190334-70.066523-40.127527c-12.950654-15.687203-20.412226-23.874472-35.587924-23.874471-15.130942 0-22.582923 8.177678-35.517592 23.852093-13.983254 16.943586-33.132703 40.149905-70.108083 40.149905-36.937017 0-56.083269-23.190334-70.063326-40.121133-12.707689-15.389891-20.006219-23.44289-34.385889-23.85529-0.188617-0.003197-0.374038-0.012788-0.562655-0.022378h-0.645774M509.906029 781.639587a22.378321 22.378321 0 0 1-22.378321-22.378321v-186.2196a22.378321 22.378321 0 1 1 44.756642 0v186.2196a22.378321 22.378321 0 0 1-22.378321 22.378321z" fill="#4F46A3" /><path d="M648.39267 962.264606H371.476932a22.371927 22.371927 0 0 1-17.196142-36.697249l138.4259-166.238956a22.378321 22.378321 0 0 1 34.392283 0l137.505192 165.12963a22.378321 22.378321 0 0 1-16.211495 37.806575z m-229.157204-44.756642h181.341125L509.906029 808.618251l-90.670563 108.889713z" fill="#4F46A3" /></svg>