<?xml version="1.0" encoding="utf-8"?>
<!-- Uploaded to: SVG Repo, www.svgrepo.com, Generator: SVG Repo Mixer Tools -->
<svg width="800px" height="800px" viewBox="0 0 1024 1024" class="icon"  version="1.1" xmlns="http://www.w3.org/2000/svg"><path d="M930.21885 94.836128c31.585402 30.754207 32.224782 81.297243 1.438607 112.850675l-133.278886 133.310856-154.602229 154.634198-219.403453 219.403453-161.667385 52.493147 48.78474-165.407761 215.375355-215.343387 150.126565-150.126564 140.376011-140.344042c30.754207-31.585402 81.297243-32.256751 112.850675-1.470575z" fill="#5FCEFF" /><path d="M832.553464 529.742812l50.798789 280.78399-52.7489 52.7489-186.827011-367.643845 154.602229-154.634198zM676.992164 236.650745l-150.126565 150.126564-351.307671-178.579001 52.7489-52.7489 448.653367 81.169368z" fill="#8B87C1" /><path d="M424.372889 715.03531l-25.926884 183.726015-56.489276 56.553214-79.251225-187.786082z" fill="#FFB578" /><path d="M311.490244 602.120696l-48.78474 165.407761-189.128781-80.593925 57.384408-55.658081z" fill="#FF4893" /><path d="M526.849614 409.162024a22.31758 22.31758 0 0 1-10.121394-2.432843L165.417352 228.146983a22.378321 22.378321 0 0 1-5.684094-35.773345l52.7489-52.748899a22.352746 22.352746 0 0 1 19.808011-6.195598l448.653367 81.169367a22.378321 22.378321 0 0 1 18.036927 26.003609 22.365533 22.365533 0 0 1-26.003609 18.036926L235.848322 179.557254l-22.662845 22.666042 323.823895 164.605339a22.378321 22.378321 0 0 1-10.159758 42.333389zM830.603353 885.654023a22.378321 22.378321 0 0 1-19.951872-12.240942l-186.827011-367.643845a22.378321 22.378321 0 1 1 39.897349-20.277956l172.859743 340.153676 22.662845-22.662845-82.889301-458.001111a22.378321 22.378321 0 0 1 44.040536-7.973076l84.973681 469.53234a22.371927 22.371927 0 0 1-6.195598 19.808011l-52.748899 52.7489a22.36873 22.36873 0 0 1-15.821473 6.556848z" fill="#4F46A3" /><path d="M341.956729 977.69286a22.387912 22.387912 0 0 1-20.616827-13.676351l-75.731435-179.448559-180.804046-77.048559a22.371927 22.371927 0 0 1-6.806207-36.649296l57.384409-55.658082a22.378321 22.378321 0 0 1 12.010765-6.029359l173.387231-28.001673 500.762886-500.702145c19.191009-19.712104 45.191421-30.687072 73.00128-30.687072 26.799638 0 52.122307 10.306815 71.303724 29.021486 19.542668 19.027967 30.508045 44.55204 30.856508 71.850395 0.345266 27.304749-9.96155 53.103756-29.034273 72.64962L445.485236 725.569105l-24.881496 176.321988a22.378321 22.378321 0 0 1-6.326671 12.688508l-56.489276 56.550017a22.378321 22.378321 0 0 1-15.831064 6.563242z m-228.626518-298.143174l158.147595 67.390715a22.384715 22.384715 0 0 1 11.844525 11.886086l66.316556 157.130979 27.694771-27.723543 24.881496-176.328381a22.41029 22.41029 0 0 1 6.333065-12.698099L915.82959 191.86533c10.524205-10.789548 16.316993-25.284306 16.121982-40.626243a56.984796 56.984796 0 0 0-17.346396-40.370491 57.058325 57.058325 0 0 0-40.060391-16.316993 56.968811 56.968811 0 0 0-41.144142 17.365577L327.311717 617.948562a22.362336 22.362336 0 0 1-12.253729 6.26593l-173.572652 28.033643-28.155125 27.301551zM832.553464 552.121133a22.378321 22.378321 0 0 1-15.821473-38.202991l65.888171-65.884974a22.378321 22.378321 0 1 1 31.642946 31.646143l-65.888171 65.888171a22.311186 22.311186 0 0 1-15.821473 6.553651zM861.964971 671.973026a22.378321 22.378321 0 0 1-15.827866-38.196597l65.859398-65.888171a22.378321 22.378321 0 0 1 31.655734 31.636552l-65.859399 65.888171a22.304792 22.304792 0 0 1-15.827867 6.560045zM502.505198 222.072867a22.378321 22.378321 0 0 1-15.821473-38.202991l65.888171-65.856202a22.378321 22.378321 0 1 1 31.636552 31.652537l-65.884974 65.856202a22.304792 22.304792 0 0 1-15.818276 6.550454zM382.685274 192.725297a22.378321 22.378321 0 0 1-15.827867-38.196597l65.888171-65.92014a22.378321 22.378321 0 0 1 31.652536 31.639749l-65.888171 65.92014a22.301595 22.301595 0 0 1-15.824669 6.556848z" fill="#4F46A3" /><path d="M262.702307 789.913172a22.384715 22.384715 0 0 1-6.90531-43.669695l161.667384-52.493148a22.378321 22.378321 0 1 1 13.820212 42.569961l-161.667385 52.493147a22.474228 22.474228 0 0 1-6.914901 1.099735z" fill="#4F46A3" /><path d="M262.715095 789.913172a22.378321 22.378321 0 0 1-21.473598-28.714583l48.78474-165.404564a22.378321 22.378321 0 0 1 42.928014 12.662932l-48.78474 165.404565a22.394306 22.394306 0 0 1-21.454416 16.05165z" fill="#4F46A3" /></svg>