<?xml version="1.0" encoding="UTF-8" standalone="no"?>
<!DOCTYPE svg PUBLIC "-//W3C//DTD SVG 1.1//EN" "http://www.w3.org/Graphics/SVG/1.1/DTD/svg11.dtd">
<!-- Created with Vectornator (http://vectornator.io/) -->
<svg height="100%" stroke-miterlimit="10" style="fill-rule:nonzero;clip-rule:evenodd;stroke-linecap:round;stroke-linejoin:round;" version="1.1" viewBox="0 0 1024 1024" width="100%" xml:space="preserve" xmlns="http://www.w3.org/2000/svg" xmlns:vectornator="http://vectornator.io" xmlns:xlink="http://www.w3.org/1999/xlink">
<defs/>
<clipPath id="ArtboardFrame">
<rect height="1024" width="1024" x="0" y="0"/>
</clipPath>
<g clip-path="url(#ArtboardFrame)" id="Untitled-copy" vectornator:layerName="Untitled copy">
<path d="M336.593 524.616C325.032 534.971 312.031 543.594 297.995 550.215C283.689 556.97 268.815 561.439 253.723 563.747C171.321 576.402 81.8887 525.315 38.9719 434.427C-11.8181 326.866 21.8133 204.383 114.114 160.799C206.414 117.215 322.405 169.047 373.195 276.608C416.112 367.496 398.7 469.034 336.593 524.616Z" fill="#ff6850" fill-rule="nonzero" opacity="1" stroke="none" vectornator:layerName="path"/>
<path d="M336.593 524.616L375.714 586.905L276.967 633.532L253.723 563.747C269.058 561.404 283.971 556.845 297.995 550.215C312.3 543.46 325.202 534.813 336.593 524.616Z" fill="#ff4893" fill-rule="nonzero" opacity="1" stroke="none" vectornator:layerName="path"/>
<path d="M304.571 564.143C289.201 571.405 272.858 576.401 256.054 578.974C165.003 592.956 70.0064 536.223 25.0452 441.006C-29.283 325.951 7.72269 194.006 107.538 146.873C207.375 99.7304 332.795 154.979 387.124 270.033C432.08 365.241 415.525 474.65 346.865 536.096C334.194 547.436 319.948 556.883 304.571 564.143ZM120.69 174.726C36.2351 214.606 5.82436 328.156 52.8995 427.85C92.0827 510.831 173.704 560.453 251.387 548.523C279.101 544.286 305.401 531.868 326.323 513.138C384.9 460.715 398.448 366.154 359.269 283.184C312.192 183.491 205.167 134.837 120.69 174.726Z" fill="#4f46a3" fill-rule="nonzero" opacity="1" stroke="none" vectornator:layerName="path"/>
<path d="M382.29 600.832L283.545 647.459C279.562 649.34 274.964 649.425 270.914 647.694C266.864 645.962 263.749 642.579 262.356 638.4L239.114 568.616C236.432 560.568 240.755 551.748 248.776 549.06C256.815 546.349 265.5 550.555 268.239 558.586L268.341 558.884L286.097 612.193L353.439 580.395L323.554 532.812L323.432 532.617C318.923 525.405 321.113 515.903 328.324 511.393C335.535 506.866 345.037 509.071 349.548 516.285L349.655 516.455L388.76 578.72C391.101 582.45 391.733 587.004 390.497 591.23C389.26 595.457 386.273 598.952 382.29 600.832Z" fill="#4f46a3" fill-rule="nonzero" opacity="1" stroke="none" vectornator:layerName="path"/>
<path d="M276.02 503.677C204.818 537.298 115.508 498.191 76.9346 416.501C73.3024 408.809 76.5936 399.629 84.2856 395.997C91.9776 392.365 101.158 395.656 104.79 403.348C136.111 469.679 207.025 502.19 262.866 475.822C270.558 472.19 279.738 475.481 283.371 483.173C287.003 490.865 283.712 500.045 276.02 503.677Z" fill="#4f46a3" fill-rule="nonzero" opacity="1" stroke="none" vectornator:layerName="path 2"/>
<path d="M81.9041 367.975C77.3727 370.115 72.0838 369.916 67.7257 367.443C63.3676 364.97 60.4851 360.531 59.9984 355.544C58.1731 336.878 59.3323 318.468 63.4448 300.824C65.3752 292.539 73.6563 287.388 81.941 289.319C90.2257 291.249 95.3768 299.53 93.4463 307.815C90.0976 322.181 89.1597 337.231 90.6578 352.544C91.2901 359.02 87.787 365.195 81.9041 367.975Z" fill="#4f46a3" fill-rule="nonzero" opacity="1" stroke="none" vectornator:layerName="path 3"/>
<path d="M347.81 616.045C375.714 712.995 330.197 809.476 344.477 869.792C353.879 909.502 396.85 988.495 429.88 1026.57" fill="none" opacity="1" stroke="#4f46a3" stroke-linecap="round" stroke-linejoin="round" stroke-width="40" vectornator:layerName="Curve 1"/>
</g>
<g clip-path="url(#ArtboardFrame)" id="Untitled-copy-copy" vectornator:layerName="Untitled copy copy">
<path d="M720.194 502.929C733.291 511.256 747.526 517.639 762.455 521.879C777.672 526.207 793.077 528.186 808.342 527.998C891.704 527.023 971.591 462.014 999.086 365.337C1031.62 250.924 978.438 135.579 880.258 107.657C782.078 79.7354 676.111 149.818 643.573 264.23C616.078 360.907 649.842 458.238 720.194 502.929Z" fill="#fddf19" fill-rule="nonzero" opacity="1" stroke="none" vectornator:layerName="path"/>
<path d="M720.194 502.929L691.773 570.771L796.81 600.643L808.342 527.998C792.831 528.191 777.374 526.13 762.455 521.879C747.238 517.552 733.098 511.128 720.194 502.929Z" fill="#ff4893" fill-rule="nonzero" opacity="1" stroke="none" vectornator:layerName="path"/>
<path d="M758.242 536.694C774.592 541.348 791.531 543.608 808.53 543.401C900.642 542.322 985.096 470.834 1013.9 369.552C1048.71 247.169 990.644 123.04 884.471 92.8446C778.274 62.6427 663.563 137.636 628.758 260.019C599.956 361.291 634.16 466.527 711.935 515.932C726.288 525.05 741.886 532.043 758.242 536.694ZM876.045 122.472C965.88 148.021 1014.43 255.079 984.271 361.123C959.168 449.39 886.749 511.678 808.161 512.597C780.126 512.944 752.152 504.988 728.451 489.928C662.098 447.776 633.286 356.699 658.386 268.443C688.546 162.399 786.187 96.9169 876.045 122.472Z" fill="#4f46a3" fill-rule="nonzero" opacity="1" stroke="none" vectornator:layerName="path"/>
<path d="M687.56 585.586L792.595 615.457C796.831 616.662 801.382 615.995 805.095 613.625C808.808 611.255 811.328 607.409 812.019 603.058L823.551 530.415C824.882 522.037 819.177 514.041 810.824 512.7C802.45 511.339 794.569 516.907 793.178 525.278L793.127 525.588L784.317 581.082L712.686 560.71L734.397 508.885L734.485 508.672C737.755 500.821 734.043 491.804 726.192 488.532C718.338 485.244 709.324 488.972 706.052 496.825L705.974 497.011L677.565 564.827C675.864 568.889 675.985 573.485 677.895 577.453C679.806 581.421 683.324 584.381 687.56 585.586Z" fill="#4f46a3" fill-rule="nonzero" opacity="1" stroke="none" vectornator:layerName="path"/>
<path d="M776.533 472.377C852.271 493.916 933.993 440.745 958.705 353.852C961.032 345.67 956.285 337.151 948.103 334.824C939.921 332.497 931.402 337.244 929.075 345.426C909.009 415.982 844.359 459.64 784.96 442.747C776.778 440.42 768.259 445.167 765.932 453.349C763.605 461.531 768.351 470.05 776.533 472.377Z" fill="#4f46a3" fill-rule="nonzero" opacity="1" stroke="none" vectornator:layerName="path 2"/>
<path d="M945.876 306.79C950.696 308.161 955.881 307.101 959.777 303.949C963.672 300.797 965.791 295.947 965.457 290.947C964.209 272.234 960.058 254.261 953.119 237.526C949.861 229.668 940.85 225.938 932.991 229.196C925.133 232.454 921.404 241.465 924.662 249.323C930.312 262.949 933.696 277.644 934.719 292.996C935.153 299.488 939.618 305.009 945.876 306.79Z" fill="#4f46a3" fill-rule="nonzero" opacity="1" stroke="none" vectornator:layerName="path 3"/>
<path d="M741.016 591.972C697.166 678.562 754.619 781.164 719.145 864.08C701.67 904.927 611.726 989.055 611.726 1026.57" fill="none" opacity="1" stroke="#4f46a3" stroke-linecap="round" stroke-linejoin="round" stroke-width="40" vectornator:layerName="Curve 1"/>
</g>
<g clip-path="url(#ArtboardFrame)" id="Untitled" vectornator:layerName="Untitled">
<path d="M565.733 627.337C548.286 632.529 530.178 635.164 511.974 635.157C493.418 635.157 475.404 632.447 458.241 627.337C364.505 599.489 295.235 500.514 295.235 382.621C295.235 243.1 392.249 130.033 511.974 130.033C631.7 130.033 728.765 243.1 728.765 382.621C728.765 500.514 659.444 599.489 565.733 627.337Z" fill="#5fceff" fill-rule="nonzero" opacity="1" stroke="none" vectornator:layerName="path"/>
<path d="M565.733 627.337L576.031 712.995L447.943 712.995L458.241 627.337C475.679 632.531 493.779 635.165 511.974 635.157C530.53 635.157 548.545 632.447 565.733 627.337Z" fill="#ff4893" fill-rule="nonzero" opacity="1" stroke="none" vectornator:layerName="path"/>
<path d="M511.974 653.223C492.034 653.228 472.199 650.341 453.087 644.654C349.512 613.883 277.169 506.132 277.169 382.623C277.169 233.383 382.501 111.97 511.974 111.97C641.476 111.97 746.831 233.383 746.831 382.623C746.831 506.12 674.477 613.873 570.879 644.657C551.76 650.338 531.92 653.223 511.974 653.223ZM511.974 148.099C402.425 148.099 313.301 253.305 313.301 382.621C313.301 490.258 375.019 583.767 463.387 610.019C494.904 619.406 529.018 619.406 560.59 610.019C648.973 583.754 710.702 490.245 710.702 382.621C710.699 253.305 621.552 148.099 511.974 148.099Z" fill="#4f46a3" fill-rule="nonzero" opacity="1" stroke="none" vectornator:layerName="path"/>
<path d="M576.031 731.061L447.946 731.061C442.779 731.061 437.86 728.849 434.431 724.984C431.002 721.118 429.393 715.97 430.009 710.84L440.307 625.184C441.494 615.305 450.496 608.115 460.349 609.281C470.234 610.432 477.339 619.243 476.222 629.133L476.18 629.5L468.314 694.934L555.665 694.934L547.799 629.5L547.768 629.231C546.597 619.324 553.679 610.343 563.586 609.17C573.502 607.98 582.475 615.078 583.647 624.988L583.675 625.223L593.968 710.848C594.583 715.977 592.972 721.123 589.544 724.987C586.115 728.851 581.196 731.062 576.031 731.061Z" fill="#4f46a3" fill-rule="nonzero" opacity="1" stroke="none" vectornator:layerName="path"/>
<path d="M511.974 574.791C419.616 574.791 344.477 488.583 344.477 382.621C344.477 372.643 352.566 364.555 362.543 364.555C372.521 364.555 380.609 372.643 380.609 382.621C380.609 468.661 439.54 538.659 511.974 538.659C521.952 538.659 530.04 546.747 530.04 556.725C530.04 566.702 521.952 574.791 511.974 574.791Z" fill="#4f46a3" fill-rule="nonzero" opacity="1" stroke="none" vectornator:layerName="path 2"/>
<path d="M374.051 333.641C368.173 333.641 362.663 330.782 359.28 325.976C355.896 321.17 355.062 315.018 357.043 309.485C364.456 288.773 374.905 269.827 388.104 253.173C394.301 245.353 405.664 244.037 413.484 250.234C421.304 256.43 422.62 267.793 416.423 275.614C405.677 289.173 397.145 304.666 391.064 321.659C388.491 328.844 381.683 333.639 374.051 333.641Z" fill="#4f46a3" fill-rule="nonzero" opacity="1" stroke="none" vectornator:layerName="path 3"/>
<path d="M511.23 721.596C511.23 819.755 514.058 918.842 514.058 1016.3" fill="none" opacity="1" stroke="#4f46a3" stroke-linecap="round" stroke-linejoin="round" stroke-width="40" vectornator:layerName="Curve 1"/>
</g>
</svg>
