<?xml version="1.0" encoding="utf-8"?>
<!-- Uploaded to: SVG Repo, www.svgrepo.com, Generator: SVG Repo Mixer Tools -->
<svg width="800px" height="800px" viewBox="0 0 1024 1024" class="icon"  version="1.1" xmlns="http://www.w3.org/2000/svg"><path d="M852.821829 252.251631c68.094034 88.074678 96.674347 194.211857 88.458306 297.088196-94.532422 11.796572-192.13387-18.094471-264.224033-85.996691 102.684524-104.730542 157.703225-205.432987 134.813399-256.935094 14.51394 14.066373 28.228653 29.379539 40.952328 45.843589z" fill="#FF4893" /><path d="M677.056102 463.343136c72.090163 67.90222 169.691611 97.793263 264.224033 85.996691-6.649558 83.694921-37.627548 165.215947-91.495364 233.118167-67.55056 5.562611-186.795042-76.278106-300.125254-206.999469 1.534513-1.150885 3.069027-2.333739 4.603541-3.516594 45.81162-35.421685 87.179545-72.250008 122.793044-108.598795z" fill="#FFB578" /><path d="M549.659517 575.458525c113.330211 130.721364 232.574693 212.56208 300.125254 206.999469a430.025013 430.025013 0 0 1-74.264057 73.273017c-95.843152 74.104212-213.073585 101.437732-324.229902 85.517155v-0.031969c43.797571-91.687178 43.254098-201.085199-6.042147-293.827355 34.2708-21.003653 69.372795-45.076332 104.410852-71.930317z" fill="#FFB578" /><path d="M811.869501 206.408042c22.889825 51.502107-32.128875 152.204552-134.813399 256.935094-12.372015-11.604758-24.008742-24.39237-34.750336-38.298898-75.574787-97.761294-86.987731-224.838188-40.760513-330.591739v-0.031969c77.492929 16.368143 150.797915 54.123568 210.324248 111.955543v0.031969z" fill="#FF4893" /><path d="M642.305766 425.044238c10.741594 13.906528 22.378321 26.69414 34.750336 38.298898-35.613499 36.348787-76.981424 73.17711-122.793044 108.598795-1.534513 1.182854-3.069027 2.365708-4.603541 3.516594-15.313165-17.646905-30.498455-36.188942-45.45996-55.530206-123.688177-160.004995-190.311636-322.791296-168.09316-397.11929 84.526115-38.075115 177.6519-46.930536 265.438856-28.388499v0.031969c-46.227217 105.753551-34.814274 232.830446 40.760513 330.591739z" fill="#FFB578" /><path d="M504.199557 519.928319c14.961506 19.341263 30.146795 37.883301 45.45996 55.530206-35.038057 26.853985-70.140052 50.926665-104.410852 71.930317a331.454903 331.454903 0 0 0-30.178764-46.674784c-80.434079-104.091162-211.315288-146.194374-331.614748-118.509194 9.079205-116.974681 65.696357-229.825357 165.823358-307.222378 27.397459-21.195467 56.553214-38.55465 86.827886-52.173457-22.218476 74.327995 44.404983 237.114296 168.09316 397.11929z" fill="#FFB578" /><path d="M445.248665 647.388842c49.296244 92.742156 49.839718 202.140177 6.042147 293.827355v0.031969c-106.840498-15.313165-208.086416-70.619587-279.281446-162.786301a433.979582 433.979582 0 0 1-30.690269-45.300115c50.926665 30.850114 170.906434-4.219912 303.929568-85.772908z" fill="#5FCEFF" /><path d="M415.069901 600.714058c11.54082 14.929537 21.579095 30.562393 30.178764 46.674784-133.023134 81.552996-253.002903 116.623021-303.929568 85.772908-45.747682-77.716712-64.513503-165.43973-57.863944-250.956886 120.29946-27.68518 251.180669 14.418033 331.614748 118.509194z" fill="#5FCEFF" /><path d="M513.521726 968.08297c-21.681396 0-43.522637-1.547301-65.402242-4.683463-117.128132-16.786938-221.475046-77.60482-293.817764-171.258094a458.253667 458.253667 0 0 1-32.266342-47.627461c-47.048821-79.928969-68.103625-171.235715-60.888214-264.041809 9.881627-127.335843 73.464831-245.135325 174.445406-323.194106a453.778003 453.778003 0 0 1 91.335518-54.878037c87.847698-39.571265 184.419743-49.897262 279.243084-29.875059 83.630982 17.666086 160.152053 58.401024 221.296019 117.802679 0.249358 0.239768 0.489126 0.485929 0.725697 0.738485a453.704474 453.704474 0 0 1 42.339783 47.502781c68.979576 89.219169 102.029159 200.218838 93.05865 312.554813-7.154669 90.069545-40.44402 174.873791-96.26834 245.24402a453.161 453.161 0 0 1-78.119522 77.070937c-80.197509 62.007131-176.210096 94.644313-275.681733 94.644314z m-1.898961-860.740558c-57.087097 0-113.458087 12.055521-166.325272 35.869252a408.915863 408.915863 0 0 0-82.326646 49.472074c-90.999844 70.341457-148.297936 176.497818-157.204508 291.253847-6.502501 83.624589 12.458331 165.880903 54.836477 237.871962a412.384503 412.384503 0 0 0 29.110999 42.963179c65.191246 84.391845 159.212163 139.196354 264.748325 154.317705 110.174868 15.789504 219.342712-13.005001 307.366239-81.067066a408.225332 408.225332 0 0 0 70.414985-69.465505c50.287284-63.39139 80.274234-139.803765 86.728782-220.992314 8.078574-101.217146-21.700578-201.232256-83.854766-281.624776a408.628141 408.628141 0 0 0-38.82319-43.461896 31.863532 31.863532 0 0 1-0.732091-0.738485c-54.951566-53.132528-123.621042-89.577222-198.645962-105.427467a412.633861 412.633861 0 0 0-85.293372-8.97051z" fill="#4F46A3" /><path d="M451.274828 963.600912a22.282414 22.282414 0 0 1-9.629072-2.193076 22.378321 22.378321 0 0 1-10.546583-29.839892c41.451044-86.773538 39.357073-189.084025-5.607368-273.677276a309.901383 309.901383 0 0 0-28.123156-43.490668c-72.326733-93.598926-193.572477-136.926552-308.891162-110.385864a22.391109 22.391109 0 0 1-27.413443-21.809272 22.378321 22.378321 0 0 1 18.062502-21.96592c132.080047-30.114826 270.825638 19.603409 353.654198 126.792369a354.699585 354.699585 0 0 1 32.211994 49.820537c51.617196 97.109126 54.037251 214.483419 6.49291 314.0126a22.387912 22.387912 0 0 1-20.21082 12.736462zM900.267066 574.272474c-88.410352 0.006394-173.495926-33.356486-238.556098-94.63792a347.682383 347.682383 0 0 1-37.116044-40.907571c-77.998039-100.897456-94.68907-236.251132-43.554607-353.235403a22.36873 22.36873 0 0 1 29.469052-11.54082 22.378321 22.378321 0 0 1 11.54082 29.469052c-44.580812 101.9876-30.038101 219.985289 37.960026 307.941682a302.912953 302.912953 0 0 0 32.355855 35.664649c66.041622 62.205339 155.765902 91.415441 246.14235 80.111193 0.920708-0.115089 1.844613-0.172633 2.771715-0.172633 12.359227 0 22.41029 10.019094 22.41029 22.378321a22.352746 22.352746 0 0 1-20.230002 22.279217c-14.434017 1.774281-28.858443 2.650233-43.193357 2.650233zM843.240711 805.098461c-76.805595 0.003197-194.547532-81.24929-310.489614-214.982136a1305.343449 1305.343449 0 0 1-46.252792-56.492473C358.583822 368.145759 289.530717 200.480984 314.664769 116.399238a22.378321 22.378321 0 1 1 42.880059 12.816384c-17.180157 57.477119 34.584097 209.144591 164.359177 377.026756a1256.469195 1256.469195 0 0 0 44.657539 54.548756c123.723343 142.70975 232.507558 203.367787 281.388205 199.362068 0.265343-0.022378 0.530686-0.038363 0.796029-0.051151 0.281327-0.015985 0.556261-0.05115 0.847179-0.076726a22.375124 22.375124 0 1 1 4.350985 44.54245c-0.904724 0.086316-1.771084 0.166239-2.666217 0.217389-2.624657 0.207799-5.303662 0.313296-8.037014 0.313297z" fill="#4F46A3" /><path d="M190.27647 766.610946c-24.254903 0.003197-44.692704-4.702644-60.55254-14.309338a22.378321 22.378321 0 1 1 23.190334-38.279717c34.117349 20.671175 136.488577 2.66302 280.64013-85.712166 34.315557-21.029228 68.797353-44.785414 102.495907-70.613194 1.640011-1.234005 3.091405-2.349724 4.539603-3.468639 44.043733-34.056608 84.586856-69.906678 120.48488-106.546383 110.411439-112.610908 144.966763-199.294933 130.347326-232.181475a22.391109 22.391109 0 0 1 20.447391-31.4831 22.378321 22.378321 0 0 1 20.869383 14.270975c25.767038 60.319166-26.355268 165.116843-139.704661 280.726446-37.320646 38.091099-79.407874 75.319035-125.082027 110.635222-1.633617 1.25958-3.254447 2.506372-4.868883 3.717998-34.734351 26.623808-70.507696 51.265537-106.140376 73.103581-106.677456 65.395848-200.746327 100.13979-266.666467 100.13979z" fill="#4F46A3" /></svg>