<?xml version="1.0" encoding="utf-8"?>
<!-- Uploaded to: SVG Repo, www.svgrepo.com, Generator: SVG Repo Mixer Tools -->
<svg width="800px" height="800px" viewBox="0 0 1024 1024" class="icon"  version="1.1" xmlns="http://www.w3.org/2000/svg"><path d="M945.931629 717.512909c3.836284 14.354094-4.699447 29.059848-19.053542 32.896132l-37.627548 10.038276V504.790984l56.68109 212.721925z" fill="#5FCEFF" /><path d="M389.606569 308.629016c-4.763385-24.424339-26.310512-42.870469-52.141488-42.87047-29.315601 0-53.100559 23.784958-53.100559 53.100559 0 29.34757 23.784958 53.132528 53.100559 53.132528 29.34757 0 53.132528-23.784958 53.132528-53.132528 0-3.516593-0.351659-6.93728-0.99104-10.230089zM229.313852 204.250133H862.364584c14.865599 0 26.885954 12.020355 26.885955 26.885954v599.930817a26.885954 26.885954 0 0 1-26.885955 26.885954H175.446037a26.885954 26.885954 0 0 1-26.885955-26.885954V231.136087c0-14.865599 12.020355-26.885954 26.885955-26.885954h53.867815z m475.859012 574.003933v-334.076363h-1.630421v-1.630421h-167.038182v74.391933h94.27667v261.314851h74.391933z m-287.72127 0v-334.076363h-74.391933v334.076363h74.391933z" fill="#FFB578" /><path d="M791.457276 137.818488l17.710842 66.431645H456.773501c0-1.694359-0.063938-3.356748-0.159845-5.019138l301.915519-80.466049c14.354094-3.836284 29.091817 4.699447 32.928101 19.053542z" fill="#5FCEFF" /><path d="M705.172864 444.177703v334.076363h-74.391933V516.939215h-94.27667v-74.391933h167.038182v1.630421z" fill="#FF4893" /><path d="M523.36499 857.952858l-260.227904 69.340826c-14.354094 3.836284-29.091817-4.699447-32.928101-19.053542l-13.395024-50.287284h306.551029z" fill="#5FCEFF" /><path d="M343.059661 444.177703h74.391933v334.076363h-74.391933z" fill="#FF4893" /><path d="M389.606569 308.629016c0.639381 3.29281 0.99104 6.713496 0.99104 10.230089 0 29.34757-23.784958 53.132528-53.132528 53.132528-29.315601 0-53.100559-23.784958-53.100559-53.132528 0-29.315601 23.784958-53.100559 53.100559-53.100559 25.830976 0 47.378102 18.44613 52.141488 42.87047z" fill="#8B87C1" /><path d="M148.560082 281.295495v320.521495l-72.82545-273.271269c-3.836284-14.354094 4.699447-29.091817 19.053542-32.896132l53.771908-14.354094z" fill="#5FCEFF" /><path d="M889.234554 782.832031a22.384715 22.384715 0 0 1-5.754425-44.005369l37.627548-10.038276c1.502544-0.399613 2.330542-1.365078 2.75573-2.103562a4.379757 4.379757 0 0 0 0.447567-3.391914l-56.68109-212.73791a22.378321 22.378321 0 1 1 43.244506-11.521639l56.677894 212.721926a48.855072 48.855072 0 0 1-4.967988 37.374993 48.986145 48.986145 0 0 1-29.929405 22.902613l-37.633943 10.041472a22.602104 22.602104 0 0 1-5.786394 0.757666zM809.152134 226.634847a22.387912 22.387912 0 0 1-21.607868-16.620698l-17.710842-66.431645c-0.639381-2.404071-3.132965-3.836284-5.530642-3.196903L443.547913 225.873985a22.378321 22.378321 0 0 1-11.531229-43.244507l320.745278-85.485187c26.243377-7.014005 53.29557 8.647623 60.312772 34.897394l17.714039 66.447628a22.378321 22.378321 0 0 1-21.636639 28.145534zM148.547295 624.201705a22.387912 22.387912 0 0 1-21.611064-16.620699l-72.825451-273.268072a48.903025 48.903025 0 0 1 4.971184-37.394174 48.893434 48.893434 0 0 1 29.970966-22.896219l53.733546-14.344504a22.378321 22.378321 0 0 1 11.544016 43.244507l-53.771908 14.354094a4.402135 4.402135 0 0 0-2.755731 2.084381 4.398939 4.398939 0 0 0-0.450763 3.411096l72.831844 273.284056a22.378321 22.378321 0 0 1-21.636639 28.145534zM256.116687 950.605501c-8.551716 0-16.994736-2.247423-24.600169-6.649558a48.976554 48.976554 0 0 1-22.928188-29.9358l-13.39822-50.306466a22.391109 22.391109 0 0 1 21.623851-28.155124 22.378321 22.378321 0 0 1 21.81247 17.336805l13.206406 49.587162c0.396416 1.48656 1.365078 2.311361 2.106759 2.739746 0.738485 0.425188 1.927733 0.850376 3.420686 0.45396l260.243889-69.344023a22.365533 22.365533 0 0 1 27.384671 15.859836 22.375124 22.375124 0 0 1-15.859836 27.384671l-260.227904 69.340826a49.567981 49.567981 0 0 1-12.784415 1.687965z" fill="#4F46A3" /><path d="M862.364584 880.331179H175.446037c-27.164085 0-49.264275-22.096994-49.264276-49.261078V231.136087c0-27.164085 22.10019-49.264275 49.264276-49.264275h686.918547c27.164085 0 49.264275 22.10019 49.264276 49.264275v599.934014c0 27.164085-22.10019 49.261078-49.264276 49.261078zM175.446037 226.628454c-2.52875 0-4.507633 1.978883-4.507634 4.507633v599.934014a4.507633 4.507633 0 0 0 4.507634 4.504436h686.918547c2.483994 0 4.507633-2.020443 4.507634-4.504436V231.136087c0-2.52875-1.978883-4.507633-4.507634-4.507633H175.446037z" fill="#4F46A3" /><path d="M343.059661 340.917736a22.378321 22.378321 0 1 1 0-44.756642c13.03697 0 25.619981-2.675808 37.394174-7.953895 32.758665-14.724935 53.941344-47.47401 53.941345-83.413593v-0.543473c0-1.262777-0.05115-2.503175-0.12468-3.740377-2.336936-48.925404-42.397328-87.083638-91.210839-87.083638-50.149817 0-91.137311 40.789285-91.367488 90.926316v0.441172a22.378321 22.378321 0 1 1-44.756642 0v-0.543473c0.342069-74.804333 61.406113-135.580656 136.12413-135.580657 72.739134 0 132.438101 56.879298 135.90674 129.493753 0.108695 1.873385 0.18542 3.960963 0.185421 6.086904v0.543473c0 53.528944-31.547039 102.297699-80.370142 124.244438a135.31851 135.31851 0 0 1-55.722019 11.879692z" fill="#4F46A3" /><path d="M337.465081 394.369954c-41.62048 0-75.47888-33.874384-75.47888-75.510849 0-41.62048 33.8584-75.47888 75.47888-75.47888 36.048278 0 67.214886 25.639162 74.107408 60.964941 0.933496 4.814536 1.40344 9.69301 1.403441 14.513939 0 41.636465-33.874384 75.510849-75.510849 75.510849z m0-106.233087c-16.940389 0-30.722238 13.781849-30.722238 30.722238 0 16.95957 13.781849 30.754207 30.722238 30.754207 16.95957 0 30.754207-13.794636 30.754207-30.754207 0-1.969292-0.195011-3.976947-0.581837-5.968618-2.79729-14.334913-15.485798-24.75362-30.17237-24.75362zM417.451594 800.632387h-74.391933a22.378321 22.378321 0 0 1-22.378321-22.378321v-334.076363a22.378321 22.378321 0 0 1 22.378321-22.378321h74.391933a22.378321 22.378321 0 0 1 22.378321 22.378321v334.076363a22.378321 22.378321 0 0 1-22.378321 22.378321z m-52.013612-44.756642h29.635291v-289.319721h-29.635291v289.319721zM705.172864 800.632387h-74.39513a22.378321 22.378321 0 0 1-22.378321-22.378321V539.317536H536.504261a22.378321 22.378321 0 0 1-22.378321-22.378321v-74.391933a22.378321 22.378321 0 0 1 22.378321-22.378321h167.038182a22.314383 22.314383 0 0 1 16.617502 7.39124 22.314383 22.314383 0 0 1 7.39124 16.617502v334.076363a22.378321 22.378321 0 0 1-22.378321 22.378321z m-52.016809-44.756642h29.638488v-290.950142h-123.911961v29.635291h71.895152a22.378321 22.378321 0 0 1 22.378321 22.378321v238.93653z" fill="#4F46A3" /></svg>