<?xml version="1.0" encoding="utf-8"?>
<!-- Uploaded to: SVG Repo, www.svgrepo.com, Generator: SVG Repo Mixer Tools -->
<svg width="800px" height="800px" viewBox="0 0 1024 1024" class="icon"  version="1.1" xmlns="http://www.w3.org/2000/svg"><path d="M927.24736 122.83904c54.50752 54.53824 54.50752 142.8992 0 197.40672l-197.40672-197.40672c54.5024-54.50752 142.8992-54.50752 197.40672 0z" fill="#5FCEFF" /><path d="M883.2256 527.34464c0 202.17344-163.90656 366.04416-366.04416 366.04416-202.17344 0-366.04416-163.87072-366.04416-366.04416 0-202.20416 163.87072-366.04416 366.04416-366.04416 202.1376 0 366.04416 163.84 366.04416 366.04416z m-93.51168 0c0-150.51264-122.02496-272.56832-272.5376-272.56832-150.54336 0-272.56832 122.05568-272.56832 272.56832s122.02496 272.5376 272.56832 272.5376c150.51264 0 272.5376-122.02496 272.5376-272.5376z" fill="#8B87C1" /><path d="M559.47264 526.6432a41.53856 41.53856 0 0 0-41.55904-41.55904c-0.256 0-0.48128 0-0.73728 0.03072-22.56896 0.35328-40.82688 18.79552-40.82688 41.52832 0 22.95296 18.6368 41.55904 41.55904 41.55904a41.51296 41.51296 0 0 0 41.52832-40.8576c0.03584-0.22528 0.03584-0.48128 0.03584-0.70144z m-42.2912-271.86688c150.51264 0 272.5376 122.05568 272.5376 272.56832s-122.02496 272.5376-272.5376 272.5376c-150.54336 0-272.56832-122.02496-272.56832-272.5376s122.02496-272.56832 272.56832-272.56832z" fill="#FFB578" /><path d="M296.78592 122.83904L99.37408 320.25088c-54.53824-54.50752-54.53824-142.86848 0-197.40672 54.50752-54.51264 142.90432-54.51264 197.41184-0.00512z" fill="#FF4893" /><path d="M517.18144 915.76832c-214.17472 0-388.42368-174.24896-388.42368-388.42368s174.24896-388.42368 388.42368-388.42368 388.42368 174.24896 388.42368 388.42368-174.24896 388.42368-388.42368 388.42368z m0-732.08832C327.68 183.68 173.5168 337.84832 173.5168 527.34464c0 189.49632 154.16832 343.66464 343.66464 343.66464 189.49632 0 343.66464-154.16832 343.66464-343.66464 0-189.50144-154.16832-343.66464-343.66464-343.66464z" fill="#4F46A3" /><path d="M517.18144 822.26176c-162.6368 0-294.94784-132.29568-294.94784-294.912 0-162.63168 132.31104-294.94784 294.94784-294.94784 162.61632 0 294.912 132.31104 294.912 294.94784 0 162.6112-132.29568 294.912-294.912 294.912z m0-545.10592c-137.9584 0-250.1888 112.23552-250.1888 250.1888 0 137.93792 112.23552 250.15808 250.1888 250.15808 137.93792 0 250.15808-112.22016 250.15808-250.15808-0.00512-137.95328-112.22016-250.1888-250.15808-250.1888z" fill="#4F46A3" /><path d="M517.18144 549.72416a22.37952 22.37952 0 0 1-22.37952-22.37952v-196.864a22.37952 22.37952 0 0 1 44.75904-0.04096V527.34464a22.38464 22.38464 0 0 1-22.37952 22.37952z" fill="#4F46A3" /><path d="M649.8816 549.72416h-132.70528a22.37952 22.37952 0 0 1 0-44.75904h132.70528a22.37952 22.37952 0 0 1 0 44.75904z" fill="#4F46A3" /><path d="M517.9136 590.58176c-35.25632 0-63.93856-28.68224-63.93856-63.93856 0-34.43712 27.776-62.93504 62.07488-63.88736 0.60416-0.03584 1.20832-0.0512 1.85856-0.0512 35.25632 0 63.93856 28.68224 63.93856 63.93856 0 0.51712-0.01024 1.13152-0.0512 1.83808-0.95232 34.31424-29.45024 62.10048-63.88224 62.10048z m0.37888-83.11808c-0.25088 0.01536-0.50688 0.02048-0.76288 0.0256-10.36288 0.16384-18.79552 8.7552-18.79552 19.15392a19.2 19.2 0 0 0 19.17952 19.17952c10.39872 0 18.99008-8.448 19.15392-18.82624l0.0256-0.7424a19.21536 19.21536 0 0 0-18.80064-18.7904z m-364.46208 458.40384a22.3744 22.3744 0 0 1-19.27168-33.72032v-0.00512l91.3664-155.33568a22.3744 22.3744 0 0 1 30.63296-7.94112 22.3744 22.3744 0 0 1 7.94624 30.62784v0.00512l-91.3664 155.33568a22.3744 22.3744 0 0 1-19.30752 11.0336z m723.85536 0a22.35392 22.35392 0 0 1-19.30752-11.0336l-91.3664-155.33568a22.3744 22.3744 0 0 1 7.936-30.63296h0.00512a22.3744 22.3744 0 0 1 30.62784 7.93088l0.00512 0.01024 91.3664 155.33568a22.3744 22.3744 0 0 1-7.94112 30.63296 22.3232 22.3232 0 0 1-11.32544 3.09248z m49.5616-623.23712a22.38464 22.38464 0 0 1-15.8208-38.20032c45.68576-45.68576 45.68576-120.04864-0.00512-165.76512-45.69088-45.69088-120.04864-45.69088-165.76 0.00512a22.3744 22.3744 0 1 1-31.6416-31.65184c63.1552-63.15008 165.90848-63.15008 229.05344 0 63.13472 63.17056 63.13472 165.92384-0.00512 229.05344a22.3232 22.3232 0 0 1-15.8208 6.55872z m-827.87328 0a22.31296 22.31296 0 0 1-15.8208-6.54848c-30.60736-30.58688-47.4624-71.26016-47.4624-114.51904 0-43.25888 16.85504-83.93216 47.45728-114.53952 63.15008-63.15008 165.90336-63.15008 229.05344 0a22.3744 22.3744 0 0 1-31.64672 31.64672c-45.70112-45.70112-120.064-45.696-165.76512 0-22.14912 22.14912-34.35008 51.58912-34.35008 82.89792a116.3776 116.3776 0 0 0 34.34496 82.86208 22.37952 22.37952 0 0 1-15.81056 38.20032z" fill="#4F46A3" /><path d="M927.24736 342.6304a22.32832 22.32832 0 0 1-15.82592-6.5536l-197.40672-197.40672a22.3744 22.3744 0 1 1 31.64672-31.64672l197.40672 197.40672a22.3744 22.3744 0 0 1-15.8208 38.20032z m-827.87328 0a22.36928 22.36928 0 0 1-15.8208-38.20032l197.40672-197.40672a22.3744 22.3744 0 0 1 31.64672 31.64672L115.19488 336.0768a22.3232 22.3232 0 0 1-15.8208 6.5536z" fill="#4F46A3" /><path d="M328.38144 533.08416a22.37952 22.37952 0 0 1-22.37952-22.37952c0-61.93152 28.47744-118.74816 78.1312-155.88352a22.3744 22.3744 0 0 1 26.8032 35.84c-38.2464 28.60544-60.18048 72.36096-60.18048 120.04352a22.3744 22.3744 0 0 1-22.3744 22.37952z" fill="#FFFFFF" /></svg>