<?xml version="1.0" encoding="utf-8"?>
<!-- Uploaded to: SVG Repo, www.svgrepo.com, Generator: SVG Repo Mixer Tools -->
<svg width="800px" height="800px" viewBox="0 0 1024 1024" class="icon"  version="1.1" xmlns="http://www.w3.org/2000/svg"><path d="M944.700821 796.172708c24.616153 0 44.532859 21.930755 44.532859 48.912616s-19.916706 48.880647-44.532859 48.880646H76.358028c-24.616153 0-44.532859-21.898786-44.532859-48.880646 0-13.490931 4.987169-25.735069 13.043365-34.558522 8.056196-8.88739 19.181418-14.354094 31.489494-14.354094h868.342793z" fill="#FF4893" /><path d="M873.282008 306.055509c25.351441 7.608629 43.989385 27.045799 51.885736 50.351222-19.43717 15.089382-45.683744 21.067591-71.035185 13.458962-25.415379-7.640598-44.053323-27.109737-51.949674-50.415161 19.43717-15.089382 45.683744-21.067591 71.099123-13.395023z" fill="#5FCEFF" /><path d="M890.67316 714.651681v81.521027H115.967656v-145.491056c129.154881 0 129.154881 63.970029 258.245825 63.970029s129.090943-63.970029 258.245824-63.970029c129.090943 0 129.090943 63.970029 258.213855 63.970029z" fill="#FFB578" /><path d="M890.67316 632.139615v82.512066c-129.122912 0-129.122912-63.970029-258.213855-63.970029-129.154881 0-129.154881 63.970029-258.245824 63.970029s-129.090943-63.970029-258.245825-63.970029v-50.511067c0-10.773563 0.351659-21.451219 1.086947-32.032968 128.067934 0.351659 128.419594 64.001998 257.158878 64.001998 129.090943 0 129.090943-64.001998 258.245824-64.001998 129.090943 0 129.090943 64.001998 258.213855 64.001998z" fill="#8B87C1" /><path d="M857.105679 122.840998c23.049671 29.699229 32.192813 69.756423 20.524117 108.534857-11.636727 38.746464-41.303987 67.134963-76.885517 79.251225-23.049671-29.699229-32.128875-69.788392-20.524117-108.534857 11.668696-38.682526 41.303987-67.166932 76.885517-79.251225zM763.660204 340.198433c15.089382 19.469139 21.067591 45.715713 13.395024 71.131092-7.608629 25.319472-27.045799 43.957416-50.383192 51.917704-15.057413-19.501108-21.067591-45.747682-13.426992-71.099122 7.608629-25.415379 27.045799-43.989385 50.41516-51.949674z" fill="#5FCEFF" /><path d="M648.507758 354.680403c38.746464 11.636727 78.803659 2.525553 108.534857-20.556086-12.116262-35.58153-40.504761-65.216821-79.283194-76.885517-38.714495-11.604758-78.803659-2.525553-108.502888 20.524117 12.116262 35.58153 40.568699 65.24879 79.251225 76.917486z m115.152446-14.48197c-23.369361 7.960288-42.806531 26.534295-50.41516 51.949674-7.640598 25.351441-1.630421 51.598014 13.426992 71.099122 23.337392-7.960288 42.774562-26.598233 50.383192-51.917704 7.672567-25.415379 1.694359-51.661952-13.395024-71.131092z m127.012956 259.972152v31.96903c-129.122912 0-129.122912-64.001998-258.213855-64.001998-129.154881 0-129.154881 64.001998-258.245824 64.001998-128.739284 0-129.090943-63.650339-257.158878-64.001998 14.897568-220.010864 182.159533-393.378914 386.249821-393.378914 106.968374 0 203.802566 47.601886 273.910649 124.583309s113.458087 183.342387 113.458087 300.828573z" fill="#FFB578" /><path d="M757.042615 334.124317c-29.731198 23.08164-69.788392 32.192813-108.534857 20.556086-38.682526-11.668696-67.134963-41.335956-79.251225-76.917486 29.699229-23.049671 69.788392-32.128875 108.502888-20.524117 38.778433 11.668696 67.166932 41.303987 79.283194 76.885517z" fill="#5FCEFF" /><path d="M890.67316 818.551029a22.378321 22.378321 0 0 1-22.378321-22.378321v-196.002123c0-108.068109-38.222172-209.550598-107.626936-285.761569-68.870881-75.625937-160.273535-117.27519-257.363479-117.275189-189.92481 0-349.776354 163.627086-363.92265 372.509531a442.65278 442.65278 0 0 0-1.035797 30.52403v196.002123a22.378321 22.378321 0 1 1-44.756642 0v-196.002123c0-11.393762 0.383628-22.694814 1.138098-33.586663 7.589448-112.035466 53.222041-216.203353 128.493122-293.277488 76.15982-77.982055 175.631457-120.92925 280.080672-120.929249 109.845587 0 212.996859 46.841023 290.457819 131.894627 76.927077 84.468571 119.289239 196.657488 119.289238 315.895576v196.002123a22.375124 22.375124 0 0 1-22.375124 22.384715z" fill="#4F46A3" /><path d="M944.700821 916.344291H76.358028c-36.895458 0-66.91118-31.965833-66.91118-71.258967 0-18.67311 6.710299-36.30403 18.896894-49.647904 12.630964-13.9353 29.702426-21.64623 48.014286-21.64623h868.342793c36.895458 0 66.914377 31.981818 66.914377 71.294134-0.003197 39.293135-30.018919 71.258968-66.914377 71.258967z m-868.342793-97.793262c-5.521051 0-10.815123 2.487191-14.910355 7.004414-4.625919 5.063894-7.247379 12.164216-7.24738 19.529881 0 14.613044 9.939171 26.502326 22.154538 26.502325h868.342793c12.215366 0 22.157735-11.889282 22.157735-26.502325 0-14.632225-9.939171-26.537492-22.157735-26.537492H76.358028zM890.67316 654.517936c-69.810771 0-105.018264-17.45509-139.06528-34.331542-30.779782-15.258818-59.852418-29.670457-119.151772-29.670456-59.34411 0-88.426337 14.418033-119.218907 29.680047-34.04382 16.873254-69.244919 34.321951-139.02372 34.321951-69.785196 0-104.986295-17.451893-139.030115-34.325148-30.619937-15.178895-59.539121-29.513808-118.189504-29.67685h-1.026206a22.378321 22.378321 0 1 1 0-44.756642h1.086947c69.133027 0.191814 104.145509 17.547801 138.007106 34.331541 30.776585 15.258818 59.852418 29.670457 119.151772 29.670457 59.296157 0 88.368793-14.411639 119.148575-29.66726 34.053411-16.879648 69.270494-34.334738 139.097249-34.334738 69.781999 0 104.986295 17.451893 139.026918 34.325147 30.786176 15.262015 59.865206 29.676851 119.186937 29.676851a22.378321 22.378321 0 1 1 0 44.756642z" fill="#4F46A3" /><path d="M890.67316 737.030002c-69.807574 0-105.015067-17.4455-139.062083-34.31236-30.779782-15.252424-59.852418-29.654472-119.151772-29.654472-59.34411 0-88.429534 14.408442-119.222104 29.664063-34.04382 16.863663-69.244919 34.302769-139.020523 34.302769s-104.976704-17.439106-139.020524-34.302769c-30.79257-15.255621-59.877993-29.664063-119.222104-29.664063a22.378321 22.378321 0 1 1 0-44.756642c69.823558 0 105.037445 17.4455 139.094053 34.315557 30.779782 15.249227 59.855615 29.651275 119.151771 29.651275s88.37199-14.405245 119.151772-29.651275c34.053411-16.870057 69.267297-34.315557 139.094053-34.315557 69.781999 0 104.983098 17.442303 139.023721 34.305966 30.786176 15.252424 59.865206 29.660866 119.190134 29.660866a22.378321 22.378321 0 1 1-0.006394 44.756642zM682.804133 382.116225h-0.006393c-13.769061 0-27.467791-2.020443-40.725348-6.000587-43.947826-13.25436-79.075396-47.323755-93.995342-91.137311a22.378321 22.378321 0 0 1 7.461572-24.891087c25.146839-19.517093 56.383778-30.265081 87.949998-30.26508 13.759471 0 27.451806 2.014049 40.696576 5.984602 43.973401 13.228785 79.123349 47.288589 94.043295 91.108539a22.378321 22.378321 0 0 1-7.458375 24.891087c-25.185202 19.542668-56.425338 30.309837-87.965983 30.309837z m-85.494776-95.939059c12.308077 22.534969 32.969661 39.62881 57.662539 47.077593a96.690331 96.690331 0 0 0 27.825844 4.101627h0.006393c16.022878 0 31.953045-4.063264 46.192052-11.639924-12.311273-22.531772-32.976054-39.616022-57.684918-47.048821-24.488277-7.340089-51.441366-4.46927-74.00191 7.509525z" fill="#4F46A3" /><path d="M726.675233 485.62555a22.378321 22.378321 0 0 1-17.717236-8.705167c-20.102126-26.038775-26.511917-60.143336-17.138597-91.236414 9.315775-31.121851 33.481165-56.064088 64.622197-66.671412a22.378321 22.378321 0 0 1 24.903875 7.471162c20.143686 25.984428 26.547083 60.120958 17.132203 91.306746-9.347744 31.105866-33.493953 56.025725-64.580638 66.63305a22.250445 22.250445 0 0 1-7.221804 1.202035z m28.049627-115.692722c-9.491605 7.157866-16.59832 17.141794-20.041385 28.63466-3.462246 11.480079-3.033861 23.717823 0.933496 34.922968 9.462833-7.154669 16.559958-17.125809 20.006219-28.599494a56.169586 56.169586 0 0 0-0.89833-34.958134zM800.747476 333.005401a22.384715 22.384715 0 0 1-17.682071-8.657213c-28.385302-36.57257-37.464506-84.67637-24.283675-128.675346 13.276738-44.014961 47.33974-79.148924 91.12772-94.020917a22.387912 22.387912 0 0 1 24.875102 7.467965c28.426861 36.626918 37.499672 84.740308 24.274085 128.704118-13.187225 43.915857-47.243833 79.056214-91.102145 93.985751a22.355943 22.355943 0 0 1-7.209016 1.195642z m47.943954-182.124367c-22.509394 12.285698-39.590447 32.950479-47.045624 57.675327-7.397634 24.699273-4.523618 51.351853 7.512722 74.024289 22.547757-12.308077 39.62881-32.96007 47.03923-57.636964 7.432799-24.708863 4.555587-51.367837-7.506328-74.062652z" fill="#4F46A3" /><path d="M876.546046 395.546414c-9.753751 0-19.459549-1.429016-28.845656-4.245487-31.236939-9.392501-56.169586-33.564285-66.712972-64.666954a22.378321 22.378321 0 0 1 7.471163-24.859117c17.809947-13.826605 39.922925-21.441628 62.269276-21.441629 9.811295 0 19.574637 1.448197 29.021486 4.299835 31.16341 9.350941 56.080072 33.500347 66.617065 64.590228a22.378321 22.378321 0 0 1-7.47436 24.859118c-17.829128 13.839393-39.970878 21.464007-62.346002 21.464006z m-44.654341-67.170129a56.291068 56.291068 0 0 0 28.682614 20.060567c11.393762 3.423883 23.724217 3.033861 34.881408-0.946283a56.089663 56.089663 0 0 0-28.605888-19.996629 55.936212 55.936212 0 0 0-34.958134 0.882345z" fill="#4F46A3" /></svg>