<?xml version="1.0" encoding="utf-8"?>
<!-- Uploaded to: SVG Repo, www.svgrepo.com, Generator: SVG Repo Mixer Tools -->
<svg width="800px" height="800px" viewBox="0 0 1024 1024" class="icon"  version="1.1" xmlns="http://www.w3.org/2000/svg"><path d="M861.245668 337.142194l5.62655 5.626549c29.507415 29.507415 29.507415 77.365053 0 106.872467-14.737723 14.769692-34.078986 22.122569-53.42025 22.122569s-38.682526-7.352877-53.420249-22.122569l-190.47148-190.471481c-29.507415-29.507415-29.507415-77.333084 0-106.840498s77.365053-29.507415 106.872467 0l5.626549 5.626549 179.186413 179.186414z" fill="#5FCEFF" /><path d="M860.446443 158.755006c49.200337 49.200337 49.488058 128.835191 0.799225 178.387188l-179.186413-179.186414c49.551997-48.688833 129.18685-48.401111 178.387188 0.799226zM779.372982 476.367319c31.329649 31.29768 31.329649 82.0645 0 113.362181-15.664825 15.664825-36.156973 23.465268-56.68109 23.465268s-41.016265-7.800443-56.68109-23.465268l-236.538853-236.538853c-31.29768-31.29768-31.29768-82.0645 0-113.362181 31.29768-31.329649 82.0645-31.329649 113.36218 0l236.538853 236.538853z" fill="#FF4893" /><path d="M577.328713 506.961681l73.432862 73.432862-534.26643 322.31176 322.311761-534.266429z" fill="#FFB578" /><path d="M116.501539 925.084624a22.378321 22.378321 0 0 1-19.16863-33.938322l322.31176-534.266429a22.384715 22.384715 0 0 1 16.45446-10.655278 22.432668 22.432668 0 0 1 18.52925 6.390609l211.954669 211.954669a22.378321 22.378321 0 0 1-4.264669 34.983709l-534.266429 322.311761a22.295202 22.295202 0 0 1-11.550411 3.219281z m326.697912-520.606063l-260.825726 432.349162 432.345965-260.828922-171.520239-171.52024z" fill="#4F46A3" /><path d="M722.691892 635.576285c-27.394262 0-53.142119-10.661672-72.50576-30.022116l-236.538853-236.538853c-39.980469-39.977272-39.980469-105.031051 0-145.008323 19.357248-19.376429 45.108301-30.050888 72.50576-30.050888 27.394262 0 53.145315 10.674459 72.512154 30.057282l236.532459 236.532459c19.376429 19.357248 30.047691 45.108301 30.047692 72.50576 0 27.394262-10.674459 53.148512-30.057282 72.508957-19.350854 19.354051-45.101908 30.015722-72.49617 30.015722zM486.153039 238.70955a57.35244 57.35244 0 0 0-40.850026 16.933995c-22.534969 22.534969-22.534969 59.193856-0.006394 81.722432l236.54205 236.535656a57.384409 57.384409 0 0 0 40.853223 16.914814c15.441041 0 29.951784-6.006981 40.856421-16.914814 10.930211-10.917424 16.943586-25.421773 16.943585-40.853224s-6.013375-29.938997-16.933995-40.850026L527.00946 255.653136a57.355637 57.355637 0 0 0-40.856421-16.943586z" fill="#4F46A3" /><path d="M813.451968 494.1421c-26.201817 0-50.801986-10.191727-69.260903-28.698598L553.735569 274.994399c-18.497281-18.497281-28.685811-43.091056-28.685811-69.244919 0-26.15706 10.18853-50.747638 28.689008-69.244919 18.494084-18.497281 43.091056-28.685811 69.257706-28.68581s50.763623 10.18853 69.260904 28.68581l190.439511 190.442709c38.187006 38.187006 38.187006 100.328407 0 138.51861-18.449327 18.48769-43.043102 28.67622-69.244919 28.67622zM622.996472 152.578589c-14.210234 0-27.566895 5.530642-37.611564 15.575312a52.812838 52.812838 0 0 0-15.578508 37.598776c0 14.197446 5.530642 27.55091 15.575311 37.595579l190.474678 190.471481c10.022291 10.047866 23.369361 15.568918 37.595579 15.568918s27.570091-5.524248 37.579595-15.552933c20.754294-20.757491 20.754294-54.500802 0.015985-75.242309l-190.439512-190.442709a52.848003 52.848003 0 0 0-37.611564-15.572115z" fill="#4F46A3" /><path d="M860.462427 360.300559a22.279217 22.279217 0 0 1-15.767126-6.499304c-8.759514-8.714758-8.833043-22.848266-0.115088-31.610977l0.147057-0.147057c0.182223-0.198208 0.367644-0.393219 0.556262-0.585034 39.958091-40.667803 39.660779-106.559171-0.661759-146.878511-40.316144-40.319341-106.207511-40.623046-146.878512-0.661759a18.382192 18.382192 0 0 1-0.575442 0.543474c-8.746727 8.673198-22.95696 8.733939-31.671718 0.022378-8.737136-8.737136-8.833043-22.816297-0.092711-31.553433 0.437976-0.434779 0.843982-0.831195 1.262777-1.221217 58.138878-56.821754 152.08307-56.303856 209.604945 1.221217 57.521876 57.521876 58.039774 151.45328 1.234005 209.595355-0.36125 0.390022-0.732091 0.767257-1.128507 1.166869a22.384715 22.384715 0 0 1-15.914183 6.607999zM438.95716 612.846305a22.378321 22.378321 0 0 1-11.582379-41.540557l138.393931-83.506304a22.391109 22.391109 0 0 1 33.954306 19.162237 22.375124 22.375124 0 0 1-11.588773 19.616197l-137.639462 83.045949a22.256839 22.256839 0 0 1-11.537623 3.222478z" fill="#4F46A3" /></svg>