<?xml version="1.0" encoding="utf-8"?>
<!-- Uploaded to: SVG Repo, www.svgrepo.com, Generator: SVG Repo Mixer Tools -->
<svg width="800px" height="800px" viewBox="0 0 1024 1024" class="icon"  version="1.1" xmlns="http://www.w3.org/2000/svg"><path d="M359.124099 221.113796l3.196903 108.279105-0.639381 0.415597 263.296931 426.14717 26.917923 43.541819 32.416597 52.461178c10.294028 16.687834 28.164715 25.894914 46.451 25.894914 9.782523 0 19.692922-2.62146 28.612282-8.152102 25.639162-15.856639 33.599451-49.42412 17.742812-75.095252l-32.384628-52.429209-290.246823-469.688989-95.363616-51.374231z m517.706471 31.96903v707.698417H162.802285V69.38878h517.994193v183.694046h196.034092z" fill="#FFB578" /><path d="M876.83057 253.082826h-196.034092v-183.694046z" fill="#FF4893" /><path d="M777.119166 794.606225c15.856639 25.671131 7.89635 59.238613-17.742812 75.095252a54.133159 54.133159 0 0 1-28.612282 8.152102c-18.286285 0-36.156973-9.207081-46.451-25.894914l-32.416597-52.461178 92.838063-57.320471 32.384628 52.429209z" fill="#42BC90" /><path d="M744.734538 742.177016l-92.838063 57.320471-26.917923-43.541819-263.296931-426.14717 0.639381-0.415597 92.166713-56.904874z" fill="#5FCEFF" /><path d="M454.487715 272.488027l-92.166713 56.904874-3.196903-108.279105z" fill="#42BC90" /><path d="M730.764072 900.2319c-26.901939 0-51.387019-13.653973-65.494951-36.527813L342.644064 341.569904a22.378321 22.378321 0 1 1 38.075114-23.522812l322.631451 522.150167a31.985015 31.985015 0 0 0 27.410246 15.281196c5.94624 0 11.761406-1.659193 16.818907-4.792157 15.121351-9.354138 19.820799-29.226087 10.49863-44.31547L435.450158 284.25263a22.378321 22.378321 0 0 1 7.272954-30.798963 22.371927 22.371927 0 0 1 30.798963 7.272954l322.631451 522.121395c22.288808 36.073853 11.067678 83.576635-25.009372 105.884624a76.549842 76.549842 0 0 1-40.380082 11.49926z" fill="#4F46A3" /><path d="M651.918854 821.879005a22.378321 22.378321 0 0 1-11.780588-41.422272l92.838063-57.320471a22.378321 22.378321 0 0 1 23.516419 38.081508l-92.838063 57.320471a22.27602 22.27602 0 0 1-11.735831 3.340764zM361.700802 352.190016a22.378321 22.378321 0 0 1-12.199382-41.156929l0.639381-0.415598a22.381518 22.381518 0 0 1 24.360401 37.550823l-0.639381 0.415597a22.292005 22.292005 0 0 1-12.161019 3.606107zM610.263208 847.614074a22.365533 22.365533 0 0 1-19.063133-10.623309l-98.752334-159.877119a22.378321 22.378321 0 0 1 38.075115-23.522812l98.758727 159.883513a22.378321 22.378321 0 0 1-19.018375 34.139727z" fill="#4F46A3" /><path d="M583.377253 804.072255a22.381518 22.381518 0 0 1-11.793375-41.415878l41.623677-25.738266a22.381518 22.381518 0 0 1 23.541994 38.068721l-41.623677 25.738266a22.282414 22.282414 0 0 1-11.748619 3.347157zM362.321002 351.771222a22.378321 22.378321 0 0 1-22.368731-21.716562l-3.196903-108.279105a22.378321 22.378321 0 0 1 32.982448-20.361075l95.363617 51.374231a22.371927 22.371927 0 0 1 1.141294 38.743267l-92.166713 56.904874a22.387912 22.387912 0 0 1-11.755012 3.33437z m20.316318-92.572721l0.907921 30.789373 26.20821-16.182723-27.116131-14.60665z" fill="#4F46A3" /><path d="M359.146477 243.495314a22.35914 22.35914 0 0 1-19.056739-10.613718l-33.759296-54.603103a22.378321 22.378321 0 0 1 38.068721-23.5356l33.759296 54.603103a22.378321 22.378321 0 0 1-19.011982 34.149318z" fill="#4F46A3" /><path d="M876.83057 983.159564H162.802285a22.378321 22.378321 0 0 1-22.378321-22.378321V69.38878a22.378321 22.378321 0 0 1 22.378321-22.378321h517.994193a22.378321 22.378321 0 0 1 22.378321 22.378321v161.315725h173.655771a22.378321 22.378321 0 0 1 22.378321 22.378321v707.698417a22.378321 22.378321 0 0 1-22.378321 22.378321z m-691.649964-44.756642h669.271643V275.461147h-173.655771a22.378321 22.378321 0 0 1-22.378321-22.378321v-161.315725H185.180606v846.635821z" fill="#4F46A3" /><path d="M876.827373 275.461147a22.285611 22.285611 0 0 1-15.29718-6.04854l-196.034092-183.694047a22.378321 22.378321 0 1 1 30.603952-32.659561l196.034092 183.694046a22.378321 22.378321 0 0 1-15.306772 38.708102zM433.611938 683.194156h-164.192938a22.378321 22.378321 0 1 1 0-44.756642h164.192938a22.378321 22.378321 0 1 1 0 44.756642zM491.156192 571.302551h-221.737192a22.378321 22.378321 0 1 1 0-44.756642h221.737192a22.378321 22.378321 0 1 1 0 44.756642zM497.549998 795.085761h-228.130998a22.378321 22.378321 0 1 1 0-44.756642h228.130998a22.378321 22.378321 0 1 1 0 44.756642zM794.861977 683.194156h-4.347788a22.378321 22.378321 0 1 1 0-44.756642h4.347788a22.378321 22.378321 0 1 1 0 44.756642zM794.861977 571.302551h-81.07346a22.378321 22.378321 0 1 1 0-44.756642h81.07346a22.378321 22.378321 0 1 1 0 44.756642z" fill="#4F46A3" /></svg>