<?xml version="1.0" encoding="UTF-8" standalone="no"?>
<!DOCTYPE svg PUBLIC "-//W3C//DTD SVG 1.1//EN" "http://www.w3.org/Graphics/SVG/1.1/DTD/svg11.dtd">
<!-- Created with Vectornator (http://vectornator.io/) -->
<svg height="100%" stroke-miterlimit="10" style="fill-rule:nonzero;clip-rule:evenodd;stroke-linecap:round;stroke-linejoin:round;" version="1.1" viewBox="0 0 1024 1024" width="100%" xml:space="preserve" xmlns="http://www.w3.org/2000/svg" xmlns:vectornator="http://vectornator.io" xmlns:xlink="http://www.w3.org/1999/xlink">
<defs/>
<g id="Main" vectornator:layerName="Main">
<g opacity="1" vectornator:layerName="Group 2">
<path d="M644.805 288.545L459.927 472.915L273.583 658.526C273.583 658.526 425.313 723.363 587.134 792.351C748.954 861.338 920.864 934.476 920.864 934.476L776.769 604.351L644.805 288.545Z" fill="#ffea00" fill-rule="nonzero" opacity="1" stroke="none" vectornator:layerName="polygon"/>
<path d="M800.388 651.189L636.53 815.047L718.459 848.398L833.956 732.901L800.388 651.189Z" fill="#ff4893" fill-rule="nonzero" opacity="1" stroke="none" vectornator:layerName="polygon"/>
<path d="M768.998 798.762L718.459 848.398L636.53 815.047L707.644 743.933L768.998 798.762Z" fill="#ff4893" fill-rule="nonzero" opacity="1" stroke="none" vectornator:layerName="polygon"/>
<path d="M717.723 456.812L618.528 556.006L445.233 729.303L538.152 771.717L659.198 650.67L757.037 552.83L717.723 456.812Z" fill="#ff4893" fill-rule="nonzero" opacity="1" stroke="none" vectornator:layerName="polygon"/>
<path d="M632.811 677.057L538.152 771.716L445.232 729.301L561.344 613.192L632.811 677.057Z" fill="#ff4893" fill-rule="nonzero" opacity="1" stroke="none" vectornator:layerName="polygon"/>
<path d="M606.767 194.559C606.767 178.437 593.503 165.367 577.142 165.367C560.78 165.367 547.516 178.437 547.516 194.559C547.516 210.682 560.78 223.752 577.142 223.752C593.503 223.752 606.767 210.682 606.767 194.559Z" fill="#8967aa" fill-rule="nonzero" opacity="1" stroke="none" vectornator:layerName="ellipse"/>
<path d="M162.387 253.81C162.387 237.687 149.123 224.617 132.762 224.617C116.4 224.617 103.136 237.687 103.136 253.81C103.136 269.933 116.4 283.003 132.762 283.003C149.123 283.003 162.387 269.933 162.387 253.81Z" fill="#f1b31c" fill-rule="nonzero" opacity="1" stroke="none" vectornator:layerName="ellipse"/>
<path d="M206.825 564.876C206.825 548.753 193.561 535.683 177.2 535.683C160.838 535.683 147.574 548.753 147.574 564.876C147.574 580.999 160.838 594.069 177.2 594.069C193.561 594.069 206.825 580.999 206.825 564.876Z" fill="#d22f27" fill-rule="nonzero" opacity="1" stroke="none" vectornator:layerName="ellipse"/>
</g>
<g opacity="1" vectornator:layerName="Group 1">
<path d="M275.443 656.441L272.952 658.931L596.908 796.703L920.864 934.476L783.091 610.52L645.32 286.564" fill="none" opacity="1" stroke="#5046a4" stroke-linecap="round" stroke-linejoin="round" stroke-width="40" vectornator:layerName="polyline"/>
<path d="M643.71 288.174L459.135 472.747L275.443 656.441" fill="none" opacity="1" stroke="#5046a4" stroke-linecap="round" stroke-linejoin="round" stroke-width="40" vectornator:layerName="polyline"/>
<path d="M645.32 286.564L643.71 288.174" fill="none" opacity="1" stroke="#5046a4" stroke-linecap="round" stroke-linejoin="round" stroke-width="40" vectornator:layerName="line"/>
<path d="M337.243 89.5243C333.767 96.1707 331.278 103.493 329.989 111.343C323.309 152.038 351.423 191.541 392.783 199.575L389.944 199.274C397.423 199.843 404.953 201.604 412.296 204.666C450.36 220.535 468.999 265.294 453.927 304.64" fill="none" opacity="1" stroke="#5046a4" stroke-linecap="round" stroke-linejoin="round" stroke-width="40" vectornator:layerName="path"/>
<path d="M337.243 89.5243C333.767 96.1707 331.278 103.493 329.989 111.343C323.309 152.038 351.423 191.541 392.783 199.575L389.944 199.274C397.423 199.843 404.953 201.604 412.296 204.666C450.36 220.535 468.999 265.294 453.927 304.64" fill="none" opacity="1" stroke="#5046a4" stroke-linecap="round" stroke-linejoin="round" stroke-width="40" vectornator:layerName="path 1"/>
<path d="M110.575 376.145C112.037 383.502 114.69 390.765 118.611 397.688C138.934 433.572 185.607 446.704 222.86 427.018L220.46 428.567C226.641 424.319 233.611 420.968 241.251 418.746C280.85 407.229 323.441 430.399 336.383 470.496" fill="none" opacity="1" stroke="#5046a4" stroke-linecap="round" stroke-linejoin="round" stroke-width="40" vectornator:layerName="path"/>
</g>
</g>
</svg>
